<svg xmlns:xlink="http://www.w3.org/1999/xlink" xmlns="http://www.w3.org/2000/svg" id="Layer_1" data-name="Layer 1" viewBox="0 0 500 500" width="500"  height="500" ><defs><style>.cls-1{fill:#fff;}</style></defs><path class="cls-1" d="M312,266.67H272.92V383.33H220.83V266.67H178.65V218.23h42.18V181.77q0-20.84,7.82-35.42a51.13,51.13,0,0,1,21.87-21.87q14.58-7.82,33.33-7.81a159.32,159.32,0,0,1,17.71,1,111.39,111.39,0,0,1,14.59,1.56l5.2.52v41.15H300.52q-14.58,0-21.35,7.81Q272.91,176,272.92,187v31.25h46.35Z"/><path class="cls-1" d="M250,466.67c-119.66,0-216.67-97-216.67-216.67H0C0,388.07,111.93,500,250,500ZM466.67,250c0,119.66-97,216.67-216.67,216.67V500c138.07,0,250-111.93,250-250ZM250,33.33c119.66,0,216.67,97,216.67,216.67H500C500,111.93,388.07,0,250,0ZM250,0C111.93,0,0,111.93,0,250H33.33c0-119.66,97-216.67,216.67-216.67Z"/></svg>