<svg xmlns:xlink="http://www.w3.org/1999/xlink" xmlns="http://www.w3.org/2000/svg" id="Layer_1" data-name="Layer 1" viewBox="0 0 500 500" width="500"  height="500" ><defs><style>.cls-1{fill:#fff;}</style></defs><path class="cls-1" d="M207.81,207.81a58.23,58.23,0,0,1,42.71-17.71q25,0,42.19,17.71Q310.41,225,310.42,250a58.23,58.23,0,0,1-17.71,42.71q-17.19,17.19-42.19,17.19t-42.71-17.19Q190.62,275,190.62,250T207.81,207.81Zm15.11,69.79a39,39,0,1,0,55.2-55.2,39,39,0,1,0-55.2,55.2Zm99.48-99.47a11.9,11.9,0,0,1,4.16,9.37,13.55,13.55,0,0,1-4.16,9.9,11.92,11.92,0,0,1-9.38,4.16A14.21,14.21,0,0,1,299,187.5a11.9,11.9,0,0,1,4.16-9.37A13.53,13.53,0,0,1,313,174,11.89,11.89,0,0,1,322.4,178.13Zm44.27,24q.51,14.07.52,47.92t-.52,47.92q-1.57,31.77-19.27,49.48-17.19,17.18-49,18.22-14.07,1-47.92,1.05t-47.92-1.05q-31.77-1.56-48.95-18.74a50.22,50.22,0,0,1-10.94-14.59,85.47,85.47,0,0,1-6.25-16.14,94.07,94.07,0,0,1-1.56-18.23q-1.05-14.07-1.05-47.92t1.05-48.44q1.56-31.25,18.75-48.43,17.17-17.72,48.95-19.28,14.07-.51,47.92-.52t47.92.52q31.77,1.58,49,19.28Q365.1,170.31,366.67,202.08Zm-25,116.67a56.55,56.55,0,0,0,2.6-10.42q1.05-6.76,1.56-15.62.53-9.37.52-15.11V222.4q0-5.73-.52-14.59a143.87,143.87,0,0,0-1.56-15.62,56.23,56.23,0,0,0-2.6-10.94,37.64,37.64,0,0,0-22.4-22.4,56.23,56.23,0,0,0-10.94-2.6,149.1,149.1,0,0,0-15.62-1.56q-8.85-.52-14.59-.52h-55.2q-5.73,0-15.11.52-8.85.52-15.62,1.56a56.55,56.55,0,0,0-10.42,2.6,37.6,37.6,0,0,0-22.39,22.4,55.43,55.43,0,0,0-2.61,10.94,149.1,149.1,0,0,0-1.56,15.62q-.53,8.85-.52,14.59v62.5q.52,7.8,1,13.54.53,5.21,1.56,10.94c.7,3.81,1.39,6.94,2.09,9.37q6.76,16.14,22.39,22.4a56.55,56.55,0,0,0,10.42,2.6c4.51.69,9.72,1.22,15.62,1.56q9.38.53,14.59.52h55.72q5.73,0,14.59-.52a146.44,146.44,0,0,0,15.62-1.56,56.23,56.23,0,0,0,10.94-2.6Q335.41,334.37,341.67,318.75Z"/><path class="cls-1" d="M250,466.67c-119.66,0-216.67-97-216.67-216.67H0C0,388.07,111.93,500,250,500ZM466.67,250c0,119.66-97,216.67-216.67,216.67V500c138.07,0,250-111.93,250-250ZM250,33.33c119.66,0,216.67,97,216.67,216.67H500C500,111.93,388.07,0,250,0ZM250,0C111.93,0,0,111.93,0,250H33.33c0-119.66,97-216.67,216.67-216.67Z"/></svg>