<svg width="512" height="512" viewBox="0 0 512 512" fill="none" xmlns="http://www.w3.org/2000/svg">
<path d="M165.896 426.508C165.896 426.508 83.8681 444.989 46.1781 379.756C33.1321 353.663 49.0781 344.24 65.0231 348.589C80.9681 352.938 103.632 362.058 103.632 362.058C103.632 362.058 135.547 406.568 165.896 426.508Z" fill="#FF0000"/>
<path d="M139.683 430.926C109.459 430.926 68.4039 422.222 44.4469 380.757C44.4259 380.722 44.4079 380.687 44.3889 380.651C37.2069 366.287 39.0459 357.857 41.8539 353.315C44.8949 348.393 50.6709 345.571 57.7009 345.571C60.2589 345.571 62.8989 345.937 65.5499 346.66C81.4239 350.989 104.152 360.111 104.38 360.203C104.732 360.345 105.037 360.584 105.258 360.893C105.575 361.334 137.311 405.334 166.995 424.836C167.323 425.052 167.581 425.359 167.735 425.72C167.89 426.081 167.935 426.479 167.865 426.866C167.795 427.252 167.612 427.609 167.34 427.892C167.068 428.176 166.719 428.373 166.336 428.459C165.888 428.56 155.205 430.926 139.683 430.926ZM47.9389 378.808C70.9459 418.578 110.525 426.926 139.682 426.926C148.765 426.926 156.235 426.072 160.753 425.389C146.212 414.882 131.774 399.575 121.869 388.114C111.534 376.157 104.017 365.984 102.351 363.701C98.8439 362.307 78.7989 354.421 64.4949 350.519C62.1879 349.89 59.9009 349.571 57.6989 349.571C52.0049 349.571 47.5849 351.647 45.2549 355.418C42.0029 360.681 42.9309 368.768 47.9389 378.808Z" fill="#FF0000"/>
<path d="M129.122 394.973C129.095 394.973 129.069 394.972 129.042 394.97C128.522 394.93 76.7949 390.603 50.3519 359.551C50.2608 359.448 50.1912 359.328 50.147 359.198C50.1028 359.068 50.085 358.931 50.0946 358.794C50.1042 358.657 50.141 358.523 50.2028 358.4C50.2647 358.278 50.3504 358.169 50.4549 358.08C50.5594 357.991 50.6806 357.923 50.8115 357.882C50.9423 357.84 51.0802 357.825 51.217 357.837C51.3537 357.849 51.4867 357.889 51.6081 357.953C51.7295 358.017 51.8368 358.105 51.9239 358.211C77.8169 388.616 128.69 392.87 129.2 392.909C129.469 392.925 129.722 393.046 129.903 393.246C130.084 393.446 130.18 393.709 130.17 393.979C130.16 394.249 130.044 394.504 129.848 394.69C129.653 394.875 129.392 394.977 129.122 394.973ZM114.699 377.444C114.649 377.444 114.598 377.44 114.548 377.433C114.264 377.391 85.7949 373.047 59.5269 356.134C59.2966 355.986 59.1346 355.752 59.0767 355.484C59.0187 355.216 59.0695 354.936 59.2179 354.706C59.3663 354.476 59.6001 354.314 59.8679 354.256C60.1357 354.198 60.4156 354.249 60.6459 354.397C86.5249 371.059 114.569 375.346 114.849 375.387C115.11 375.421 115.348 375.555 115.515 375.759C115.681 375.963 115.763 376.223 115.744 376.486C115.725 376.749 115.606 376.995 115.412 377.173C115.217 377.351 114.962 377.448 114.699 377.444Z" fill="black"/>
<path d="M133.187 412.09C127.946 412.09 121.251 411.666 113.625 410.226C96.8699 407.064 72.3699 398.152 50.8059 373.661C50.6249 373.455 50.533 373.186 50.5504 372.913C50.5679 372.639 50.6932 372.384 50.8989 372.203C51.1046 372.022 51.3737 371.93 51.6472 371.948C51.9206 371.965 52.1759 372.09 52.3569 372.296C92.8709 418.308 144.319 409.287 144.835 409.191C144.968 409.166 145.105 409.167 145.238 409.195C145.371 409.223 145.497 409.277 145.609 409.354C145.721 409.43 145.817 409.528 145.891 409.642C145.965 409.756 146.016 409.883 146.041 410.016C146.066 410.149 146.064 410.286 146.037 410.419C146.009 410.552 145.955 410.678 145.878 410.79C145.802 410.902 145.704 410.998 145.59 411.072C145.476 411.146 145.349 411.197 145.216 411.222C144.9 411.279 140.433 412.09 133.187 412.09Z" fill="black"/>
<path d="M273.457 316.372C276.75 318.886 252.026 217.396 197.665 225.37C162.873 231.169 204.033 279.593 205.518 280.404C207.002 281.217 262.589 308.075 273.457 316.372Z" fill="#FF0000"/>
<path d="M273.565 318.256C273.255 318.256 272.949 318.177 272.677 318.027C272.406 317.878 272.176 317.661 272.011 317.399C271.845 317.136 271.749 316.836 271.73 316.526C271.712 316.217 271.772 315.907 271.906 315.627C271.749 311.922 266.414 289.936 254.763 268.184C244.641 249.288 227.567 226.761 203.704 226.761C203.217 226.761 202.749 226.567 202.405 226.223C202.06 225.878 201.866 225.411 201.866 224.923C201.866 224.436 202.06 223.969 202.405 223.624C202.749 223.28 203.217 223.086 203.704 223.086C229.386 223.086 247.406 246.667 258.002 266.448C269.42 287.764 275.582 310.987 275.584 315.781C275.584 316.17 275.547 316.48 275.469 316.758C275.216 317.653 274.45 318.256 273.565 318.256Z" fill="#FF0000"/>
<path d="M236.631 295.211C236.226 295.211 235.84 294.97 235.676 294.571C235.538 294.238 221.685 260.891 199.855 231.484C199.774 231.375 199.715 231.251 199.682 231.12C199.649 230.988 199.642 230.852 199.662 230.717C199.682 230.583 199.728 230.454 199.798 230.338C199.867 230.221 199.959 230.12 200.068 230.039C200.177 229.958 200.301 229.899 200.432 229.866C200.564 229.833 200.7 229.826 200.835 229.846C200.969 229.866 201.098 229.912 201.214 229.982C201.331 230.051 201.432 230.143 201.513 230.252C223.501 259.873 237.448 293.448 237.586 293.784C237.651 293.941 237.676 294.111 237.659 294.28C237.642 294.449 237.584 294.611 237.49 294.753C237.395 294.894 237.267 295.009 237.118 295.089C236.968 295.169 236.801 295.211 236.631 295.211ZM220.445 288.816C220.091 288.816 219.746 288.633 219.553 288.306C208.988 270.336 191.483 236.844 191.307 236.508C191.195 236.267 191.18 235.991 191.266 235.739C191.351 235.487 191.531 235.278 191.767 235.154C192.003 235.031 192.277 235.004 192.533 235.078C192.789 235.151 193.006 235.321 193.14 235.551C193.315 235.887 210.796 269.334 221.335 287.259C221.427 287.416 221.477 287.594 221.478 287.776C221.479 287.958 221.432 288.138 221.342 288.296C221.251 288.454 221.121 288.585 220.963 288.676C220.806 288.768 220.627 288.816 220.445 288.816ZM257.54 307.044C257.089 307.044 256.674 306.745 256.546 306.289C251.482 288.181 239.954 269.346 231.177 256.734C221.644 243.038 213.203 233.519 213.119 233.424C213.029 233.323 212.96 233.205 212.915 233.077C212.871 232.948 212.852 232.813 212.86 232.677C212.867 232.542 212.902 232.41 212.961 232.287C213.02 232.165 213.103 232.056 213.204 231.966C213.305 231.876 213.423 231.807 213.552 231.762C213.68 231.718 213.815 231.699 213.951 231.707C214.086 231.714 214.219 231.749 214.341 231.808C214.463 231.867 214.572 231.95 214.662 232.051C214.747 232.146 223.256 241.739 232.856 255.531C241.731 268.279 253.39 287.337 258.536 305.731C258.579 305.885 258.586 306.046 258.557 306.203C258.527 306.36 258.461 306.508 258.365 306.635C258.268 306.763 258.144 306.866 258 306.937C257.857 307.008 257.7 307.044 257.54 307.044Z" fill="black"/>
<path d="M54.0401 240.709C54.0401 240.709 28.6021 215.766 20.9911 221.201C13.3801 226.636 28.4151 271.033 64.3861 285.531C59.2791 267.62 54.0401 240.709 54.0401 240.709Z" fill="#F8CC00"/>
<path d="M64.3861 287.531C64.1298 287.531 63.8759 287.482 63.6381 287.386C35.3011 275.964 19.2091 246.379 17.2561 229.981C16.6411 224.814 17.5301 221.214 19.8291 219.573C20.8941 218.812 22.2001 218.427 23.7101 218.427C28.1731 218.427 34.9111 221.985 43.7361 229.002C50.1211 234.079 55.2261 239.071 55.4401 239.281C55.7291 239.564 55.9251 239.929 56.0021 240.327C56.0551 240.595 61.2841 267.361 66.3091 284.982C66.3936 285.28 66.408 285.593 66.3512 285.897C66.2943 286.201 66.1678 286.488 65.9815 286.735C65.7951 286.982 65.5541 287.182 65.2773 287.32C65.0005 287.458 64.6954 287.531 64.3861 287.531ZM23.7101 222.427C23.0421 222.427 22.5321 222.558 22.1531 222.829C21.4221 223.351 20.7401 225.414 21.2271 229.508C22.7451 242.245 36.0061 269.748 61.3351 281.994C57.0671 266.05 52.9481 245.505 52.1971 241.707C46.2421 235.948 30.7651 222.427 23.7101 222.427ZM145.051 238.602C148.337 241.422 151.459 175.54 134.063 175.54C116.124 175.54 119.591 210.017 119.591 210.017C119.591 210.017 133.585 228.76 145.051 238.602Z" fill="#F8CC00"/>
<path d="M145.257 240.689H145.255C144.7 240.688 144.165 240.485 143.748 240.119C132.247 230.247 118.565 211.984 117.988 211.212C117.771 210.921 117.636 210.577 117.6 210.216C117.507 209.291 115.422 187.468 124.011 177.972C126.671 175.031 130.053 173.539 134.062 173.539C137.669 173.539 140.715 175.649 143.117 179.81C151.393 194.155 150.54 233.913 147.412 239.324C146.726 240.512 145.769 240.689 145.257 240.689ZM121.534 209.271C123.606 212.002 134.709 226.444 144.493 235.43C146.13 226.787 146.886 194.25 139.623 181.76C137.973 178.92 136.153 177.539 134.062 177.539C131.191 177.539 128.874 178.559 126.978 180.654C120.243 188.102 121.274 205.926 121.534 209.271Z" fill="#F8CC00"/>
<path d="M324.707 431.821C327.425 406.732 329.656 341.081 250.465 303.135C171.276 265.191 104.455 228.069 87.1329 129.904C83.0089 93.608 58.2639 108.457 57.4399 129.904C56.6139 151.354 22.1669 273.935 123.429 386.451C205.097 477.189 266.657 466.407 293.364 460.691C315.085 456.042 322.988 447.675 324.707 431.821Z" fill="#FF0000"/>
<path d="M262.522 466.346C216.156 466.346 168.857 439.915 121.942 387.789C32.5009 288.409 48.0809 181.975 53.9459 141.906C54.7259 136.571 55.3429 132.357 55.4409 129.827C55.9299 117.083 64.3989 105.903 73.5629 105.903C85.1319 105.903 88.2899 122.434 89.1129 129.616C97.0419 174.49 115.42 208.81 146.948 237.627C176.025 264.203 212.915 282.926 251.329 301.332C307.007 328.011 333.068 373.208 326.695 432.037C324.813 449.398 315.585 457.98 293.782 462.647C284.807 464.568 274.807 466.346 262.522 466.346ZM73.5629 109.903C66.0419 109.903 59.7939 120.696 59.4369 129.981C59.3319 132.725 58.7329 136.819 57.9029 142.485C52.1129 182.045 36.7309 287.13 124.915 385.113C171.04 436.361 217.338 462.345 262.522 462.345C274.434 462.345 284.183 460.61 292.944 458.735C312.969 454.449 321.039 447.096 322.718 431.605C328.891 374.618 303.608 330.817 249.6 304.939C210.905 286.398 173.73 267.523 144.248 240.579C112.022 211.125 93.2469 176.067 85.1619 130.252C85.1548 130.211 85.1488 130.171 85.1439 130.13C83.7069 117.465 79.3769 109.903 73.5629 109.903Z" fill="#AA0909"/>
<path d="M57.4391 129.904C57.4391 129.904 -16.6599 87.294 8.48812 58.662C31.9371 31.963 47.0541 89.572 69.8851 88.484C92.7181 87.396 95.5151 43.929 123.734 51.062C147.136 56.976 127.726 108.734 87.1321 129.904C72.6341 136.94 57.4391 129.904 57.4391 129.904Z" fill="#F8CC00"/>
<path d="M72.9901 135.031C63.8561 135.031 56.8901 131.854 56.5981 131.719C56.5449 131.694 56.4929 131.667 56.4421 131.638C56.3171 131.567 43.7721 124.319 30.8751 113.963C13.3251 99.872 3.47811 86.997 1.60611 75.696C0.47511 68.869 2.28511 62.693 6.98511 57.342C11.5651 52.127 16.1381 49.592 20.9651 49.592C30.1021 49.592 37.6381 58.625 45.6171 68.19C53.1271 77.191 60.8911 86.5 69.2451 86.5C69.4261 86.5 69.6061 86.495 69.7901 86.486C79.0611 86.045 84.8671 77.59 91.0131 68.638C97.8881 58.625 104.996 48.272 117.739 48.272C119.807 48.272 121.989 48.558 124.224 49.123C130.721 50.766 134.777 55.744 135.644 63.144C136.764 72.709 132.479 85.979 124.182 98.639C115.064 112.551 102.235 124.285 88.0571 131.678C83.4561 133.912 78.4031 135.031 72.9901 135.031ZM58.3531 128.121C59.0831 128.441 65.2461 131.031 72.9911 131.031C77.7951 131.031 82.2591 130.047 86.2611 128.104C114.808 113.216 133.799 81.765 131.672 63.608C130.993 57.811 128.158 54.243 123.245 53.002C121.331 52.518 119.478 52.273 117.74 52.273C107.103 52.273 100.89 61.323 94.3121 70.903C87.8841 80.265 81.2371 89.947 69.9811 90.483C59.4091 90.983 50.8391 80.693 42.5471 70.754C35.5091 62.317 28.2311 53.594 20.9661 53.594C17.3571 53.594 13.7671 55.684 9.99111 59.983C6.06611 64.452 4.61411 69.379 5.55311 75.045C9.58211 99.373 56.0571 126.783 58.3531 128.121Z" fill="#F8CC00"/>
<path d="M168.671 333.593C168.671 333.593 123.008 347.864 107.062 320.321C91.117 292.775 113.085 265.089 113.085 265.089C113.085 265.089 143.356 313.781 168.671 333.593Z" fill="black"/>
<path d="M143.128 339.288C125.206 339.288 112.136 333.076 105.331 321.322C88.8929 292.926 111.29 264.132 111.519 263.844C111.718 263.592 111.974 263.392 112.267 263.261C112.56 263.13 112.88 263.071 113.2 263.09C113.849 263.127 114.44 263.479 114.784 264.031C115.085 264.514 145.162 312.653 169.904 332.016C170.191 332.241 170.412 332.54 170.542 332.881C170.671 333.222 170.705 333.592 170.64 333.951C170.574 334.31 170.412 334.644 170.17 334.917C169.928 335.19 169.616 335.392 169.268 335.501C168.772 335.656 156.989 339.288 143.128 339.288ZM113 268.693C108.357 275.798 96.3339 297.797 108.792 319.318C114.928 329.915 126.48 335.288 143.128 335.288C151.888 335.288 159.912 333.73 164.382 332.663C142.892 314.285 119.351 278.614 113 268.693Z" fill="black"/>
<path d="M316.24 367.151C316.32 367.339 282.466 373.369 257.823 347.57C233.179 321.769 233.205 294.177 233.205 294.177C233.205 294.177 294.203 316.134 316.24 367.151Z" fill="#F8FFFF"/>
<path d="M307.021 369.893C295.577 369.893 273.781 367.172 256.376 348.953C231.465 322.871 231.203 295.336 231.204 294.177C231.205 293.856 231.283 293.541 231.431 293.256C231.579 292.972 231.793 292.727 232.056 292.543C232.318 292.359 232.621 292.24 232.939 292.197C233.257 292.155 233.58 292.189 233.882 292.297C234.5 292.52 295.95 315.139 318.075 366.359C318.343 366.979 318.279 367.694 317.907 368.257C317.388 369.04 316.832 369.22 313.935 369.539C311.638 369.781 309.33 369.9 307.021 369.893ZM235.418 297.208C236.236 304.943 240.192 326.216 259.27 346.188C275.646 363.333 296.217 365.892 307.022 365.892C309.698 365.892 311.853 365.74 313.345 365.58C293.944 323.821 247.473 302.225 235.418 297.208Z" fill="#AA0909"/>
<path d="M56.5619 252.977C56.5619 252.977 85.3179 222.471 75.8959 188.405C66.4749 154.337 55.6309 144.196 55.6309 144.196C55.6309 144.196 45.9239 193.605 56.5619 252.977Z" fill="#F8FFFF"/>
<path d="M56.5619 254.977C56.0927 254.977 55.6384 254.812 55.2786 254.511C54.9187 254.21 54.6764 253.792 54.5939 253.33C44.0129 194.272 53.5719 144.309 53.6689 143.81C53.7385 143.46 53.9001 143.135 54.1372 142.869C54.3742 142.602 54.6781 142.404 55.0175 142.294C55.3568 142.185 55.7193 142.168 56.0675 142.245C56.4156 142.322 56.7368 142.491 56.9979 142.734C57.4569 143.164 68.3619 153.653 77.8239 187.871C87.4349 222.623 59.2229 253.069 58.0169 254.349C57.8298 254.547 57.6043 254.705 57.3542 254.813C57.104 254.921 56.8344 254.977 56.5619 254.977ZM56.8819 148.85C54.9339 161.667 50.1489 201.795 57.8069 248.412C60.4049 245.147 64.4519 239.558 68.0289 232.463C73.3249 221.958 78.6539 205.88 73.9679 188.939C67.5799 165.839 60.5759 153.961 56.8819 148.85Z" fill="#AA0909"/>
<path d="M252.026 374.683C252.026 374.683 201.289 374.683 149.828 313.798C111.707 268.699 93.2899 237.693 85.3169 196.378C102.713 230.442 141.128 260.625 183.168 286.124C225.208 311.624 248.4 342.065 252.026 374.683Z" fill="#F8CC00"/>
<path d="M252.046 376.683H252.026C251.493 376.683 238.737 376.595 219.485 368.931C201.831 361.903 175.15 346.856 148.3 315.089C108.01 267.425 91.014 236.459 83.353 196.757C83.2619 196.284 83.3445 195.794 83.5857 195.376C83.8269 194.959 84.2105 194.643 84.666 194.486C85.1217 194.33 85.6182 194.344 86.0647 194.524C86.5112 194.705 86.878 195.04 87.098 195.468C102.056 224.758 133.82 253.853 184.204 284.413C226.036 309.786 250.157 340.818 253.981 374.177C254.023 374.338 254.044 374.507 254.044 374.682C254.045 374.945 253.993 375.205 253.893 375.448C253.793 375.69 253.646 375.911 253.46 376.097C253.275 376.283 253.054 376.43 252.811 376.531C252.569 376.631 252.309 376.683 252.046 376.683ZM90.115 208.577C98.763 241.852 115.94 270.609 151.355 312.507C195.519 364.758 239.384 371.646 249.74 372.548C245.303 341.25 221.981 312.006 182.131 287.834C137.51 260.77 107.247 234.727 90.115 208.577Z" fill="#F8CC00"/>
<path d="M54.7149 248.172C54.4389 248.172 54.1629 248.062 53.9599 247.844C53.8179 247.693 39.6839 232.639 27.7879 225.82C27.5618 225.678 27.3994 225.454 27.3347 225.195C27.27 224.936 27.3079 224.662 27.4406 224.43C27.5733 224.199 27.7904 224.027 28.0466 223.952C28.3028 223.877 28.5781 223.904 28.8149 224.027C40.9829 231.003 54.8829 245.807 55.4689 246.434C55.6067 246.581 55.6985 246.765 55.733 246.963C55.7675 247.162 55.7431 247.366 55.663 247.551C55.5828 247.736 55.4503 247.893 55.2819 248.003C55.1134 248.114 54.9163 248.172 54.7149 248.172ZM62.4979 280.489C62.1849 280.489 61.8889 280.345 61.6929 280.104C61.4989 279.949 60.8939 279.541 60.2579 279.111C42.3309 267.007 29.6419 253.203 22.5419 238.083C22.4418 237.838 22.4398 237.563 22.5362 237.316C22.6327 237.069 22.8202 236.868 23.0602 236.756C23.3002 236.643 23.5744 236.626 23.8261 236.71C24.0778 236.793 24.2878 236.97 24.4129 237.204C31.3509 251.983 43.8009 265.507 61.4139 277.399C63.2059 278.609 63.3519 278.708 63.4869 279.162C63.5327 279.316 63.5418 279.479 63.5137 279.637C63.4856 279.795 63.4209 279.945 63.3249 280.073C63.2289 280.202 63.1041 280.307 62.9606 280.379C62.817 280.451 62.6586 280.489 62.4979 280.489ZM58.1759 264.043C57.9239 264.043 57.6806 263.951 57.4919 263.784C56.3049 262.737 28.3339 237.999 20.5339 225.469C20.3891 225.236 20.3426 224.956 20.4047 224.689C20.4668 224.422 20.6323 224.191 20.8649 224.046C21.0975 223.901 21.3781 223.855 21.645 223.917C21.9118 223.979 22.1431 224.144 22.2879 224.377C29.9289 236.65 58.5699 261.981 58.8589 262.235C59.0169 262.374 59.1289 262.557 59.1798 262.761C59.2308 262.965 59.2183 263.179 59.144 263.376C59.0698 263.572 58.9373 263.742 58.7643 263.861C58.5913 263.98 58.386 264.044 58.1759 264.043ZM131.55 225.956H131.531C131.257 225.951 130.996 225.837 130.806 225.64C130.616 225.443 130.511 225.178 130.516 224.904C130.524 224.483 130.623 223.172 130.789 220.998C131.437 212.46 132.958 192.466 132.434 179.498C132.411 178.928 132.854 178.447 133.424 178.424C134.008 178.385 134.475 178.844 134.498 179.414C135.027 192.502 133.501 212.581 132.849 221.155C132.698 223.143 132.588 224.581 132.582 224.941C132.577 225.212 132.467 225.47 132.274 225.66C132.081 225.85 131.821 225.956 131.55 225.956ZM123.296 216.031C123.152 216.031 123.009 216.001 122.877 215.942C122.745 215.884 122.627 215.799 122.53 215.692C122.433 215.585 122.359 215.459 122.314 215.322C122.269 215.186 122.252 215.041 122.266 214.897C122.287 214.676 124.449 192.705 125.661 183.002C125.697 182.732 125.838 182.487 126.054 182.321C126.27 182.155 126.543 182.08 126.813 182.114C127.083 182.148 127.329 182.287 127.497 182.501C127.666 182.715 127.742 182.987 127.711 183.258C126.502 192.934 124.344 214.878 124.322 215.098C124.298 215.353 124.179 215.591 123.989 215.763C123.8 215.936 123.552 216.031 123.296 216.031ZM138.942 233.771C138.794 233.771 138.647 233.74 138.513 233.679C138.378 233.617 138.258 233.528 138.161 233.416C138.064 233.304 137.992 233.173 137.95 233.031C137.908 232.889 137.897 232.74 137.918 232.593C137.949 232.369 141.062 209.977 140.047 188.999C140.034 188.725 140.13 188.458 140.314 188.255C140.498 188.052 140.755 187.931 141.029 187.917C141.587 187.918 142.083 188.33 142.111 188.899C143.134 210.077 139.995 232.656 139.963 232.881C139.892 233.398 139.449 233.771 138.942 233.771ZM72.3269 112.283C61.6839 112.283 48.8859 104.158 34.2879 88.1351C23.5099 76.3041 15.6879 64.3111 15.6099 64.1901C15.5361 64.0763 15.4853 63.949 15.4606 63.8156C15.4359 63.6822 15.4377 63.5453 15.466 63.4126C15.4942 63.2799 15.5483 63.1541 15.6251 63.0423C15.702 62.9305 15.8001 62.8349 15.9139 62.7611C16.0277 62.6872 16.1549 62.6365 16.2883 62.6118C16.4217 62.5871 16.5587 62.5889 16.6914 62.6171C16.8241 62.6453 16.9499 62.6994 17.0617 62.7763C17.1735 62.8531 17.2691 62.9513 17.3429 63.0651C17.6499 63.5371 48.2409 110.216 72.3269 110.216C96.3319 110.216 122.105 56.9871 122.363 56.4481C122.422 56.3257 122.504 56.2162 122.605 56.1256C122.706 56.035 122.824 55.9652 122.951 55.9202C123.079 55.8751 123.215 55.8557 123.35 55.8631C123.486 55.8705 123.619 55.9044 123.741 55.9631C123.863 56.0217 123.973 56.1038 124.063 56.2048C124.154 56.3058 124.224 56.4236 124.269 56.5516C124.314 56.6796 124.333 56.8151 124.326 56.9506C124.319 57.0861 124.285 57.2187 124.226 57.3411C124.161 57.4781 117.569 71.1651 108.003 84.6691C95.0249 102.992 83.0219 112.283 72.3269 112.283Z" fill="black"/>
<path d="M71.5801 98.82C51.5661 98.82 24.5021 60.37 23.3601 58.733C23.2823 58.6219 23.2271 58.4965 23.1979 58.364C23.1686 58.2315 23.1658 58.0945 23.1895 57.9609C23.2133 57.8273 23.2632 57.6997 23.3364 57.5854C23.4096 57.4712 23.5047 57.3725 23.6161 57.295C23.7272 57.2172 23.8527 57.162 23.9852 57.1328C24.1177 57.1035 24.2547 57.1007 24.3883 57.1245C24.5218 57.1483 24.6494 57.1982 24.7637 57.2714C24.878 57.3446 24.9766 57.4396 25.0541 57.551C25.3281 57.943 52.6391 96.753 71.5801 96.753C88.9761 96.753 113.32 53.83 113.564 53.397C113.631 53.2788 113.72 53.1748 113.826 53.091C113.933 53.0072 114.055 52.9452 114.186 52.9086C114.317 52.872 114.453 52.8616 114.588 52.8777C114.723 52.8939 114.853 52.9365 114.971 53.003C115.089 53.0695 115.193 53.1587 115.277 53.2654C115.361 53.3721 115.423 53.4943 115.459 53.6249C115.496 53.7556 115.507 53.8922 115.49 54.0269C115.474 54.1616 115.432 54.2918 115.365 54.41C114.346 56.224 90.1731 98.82 71.5801 98.82Z" fill="black"/>
<path d="M73.076 126.246C38.916 126.246 7.701 72.227 7.519 71.683C7.44121 71.4312 7.46244 71.1593 7.57837 70.9227C7.69429 70.6861 7.89615 70.5027 8.14274 70.4099C8.38933 70.3171 8.66204 70.322 8.90518 70.4234C9.14832 70.5249 9.34355 70.7154 9.451 70.956C9.965 71.935 40.286 124.18 73.075 124.18C105.346 124.18 128.473 62.154 128.704 61.528C128.751 61.4006 128.822 61.2838 128.914 61.184C129.006 61.0842 129.116 61.0036 129.239 60.9465C129.362 60.8895 129.495 60.8573 129.631 60.8517C129.766 60.8461 129.902 60.8673 130.029 60.914C130.156 60.9606 130.273 61.0319 130.373 61.1238C130.473 61.2157 130.553 61.3263 130.61 61.4493C130.667 61.5723 130.7 61.7054 130.705 61.8409C130.711 61.9764 130.69 62.1116 130.643 62.239C130.584 62.398 124.685 78.356 114.763 94.099C101.322 115.43 87.296 126.246 73.076 126.246ZM177.096 342.008L177.056 342.007C176.782 341.997 176.524 341.878 176.338 341.677C176.152 341.476 176.053 341.21 176.063 340.936C176.078 340.546 177.167 301.501 146.827 265.757C146.65 265.548 146.563 265.277 146.585 265.004C146.608 264.731 146.737 264.478 146.946 264.3C147.155 264.123 147.426 264.036 147.699 264.059C147.972 264.081 148.225 264.211 148.403 264.419C179.283 300.802 178.143 340.616 178.128 341.014C178.117 341.281 178.004 341.533 177.812 341.718C177.619 341.903 177.363 342.007 177.096 342.008ZM137.763 300.192C137.358 300.192 136.974 299.952 136.809 299.554C136.664 299.204 122.205 264.266 111.581 233.071C111.537 232.943 111.519 232.807 111.528 232.671C111.536 232.536 111.572 232.403 111.632 232.282C111.691 232.16 111.775 232.051 111.877 231.962C111.979 231.872 112.097 231.804 112.226 231.76C112.354 231.716 112.49 231.698 112.626 231.706C112.761 231.715 112.894 231.75 113.015 231.81C113.137 231.87 113.246 231.953 113.336 232.056C113.425 232.158 113.494 232.276 113.537 232.405C124.14 263.536 138.573 298.415 138.718 298.763C138.783 298.92 138.809 299.091 138.793 299.26C138.776 299.429 138.718 299.592 138.623 299.733C138.529 299.875 138.401 299.991 138.251 300.071C138.101 300.151 137.933 300.192 137.763 300.192ZM156.839 322.765C156.358 322.765 155.926 322.426 155.827 321.936C155.756 321.582 148.446 286.037 129.672 249.728C129.605 249.607 129.563 249.474 129.549 249.337C129.534 249.199 129.547 249.06 129.587 248.928C129.627 248.796 129.694 248.673 129.782 248.567C129.87 248.46 129.979 248.373 130.102 248.309C130.224 248.246 130.359 248.208 130.496 248.197C130.634 248.186 130.773 248.203 130.904 248.247C131.035 248.29 131.156 248.36 131.26 248.451C131.363 248.542 131.448 248.654 131.508 248.778C150.42 285.354 157.78 321.17 157.853 321.527C157.883 321.677 157.88 321.832 157.843 321.981C157.806 322.129 157.737 322.268 157.64 322.387C157.543 322.505 157.42 322.6 157.282 322.666C157.143 322.731 156.992 322.765 156.839 322.765ZM112.559 265.296C112.157 265.296 111.774 265.059 111.607 264.664C111.484 264.373 99.266 235.282 96.09 215.159C96.0586 214.894 96.1312 214.626 96.2925 214.413C96.4538 214.2 96.6913 214.058 96.9552 214.016C97.2191 213.975 97.489 214.037 97.7082 214.189C97.9274 214.342 98.0789 214.574 98.131 214.836C101.268 234.713 113.389 263.57 113.511 263.86C113.578 264.017 113.604 264.188 113.588 264.358C113.573 264.528 113.515 264.692 113.421 264.834C113.327 264.976 113.198 265.093 113.048 265.173C112.898 265.254 112.73 265.296 112.559 265.296ZM203.075 359.914C202.582 359.914 202.145 359.56 202.058 359.058C201.98 358.61 194.024 313.917 170.246 280.05C170.103 279.825 170.051 279.554 170.103 279.293C170.155 279.032 170.305 278.8 170.523 278.647C170.741 278.494 171.01 278.431 171.274 278.471C171.537 278.512 171.775 278.652 171.937 278.863C195.986 313.117 204.014 358.254 204.092 358.705C204.118 358.853 204.111 359.006 204.072 359.151C204.033 359.296 203.962 359.431 203.865 359.547C203.769 359.662 203.648 359.755 203.511 359.818C203.374 359.881 203.226 359.914 203.075 359.914ZM223.768 368.926C223.236 368.926 222.785 368.518 222.74 367.978C222.706 367.574 219.059 327.127 191.418 292.537C191.333 292.431 191.27 292.31 191.233 292.179C191.195 292.049 191.183 291.913 191.198 291.778C191.214 291.643 191.255 291.513 191.32 291.394C191.386 291.275 191.474 291.171 191.58 291.086C191.686 291.001 191.807 290.938 191.938 290.901C192.068 290.863 192.204 290.851 192.339 290.866C192.474 290.881 192.604 290.923 192.723 290.988C192.842 291.054 192.946 291.142 193.031 291.248C221.08 326.348 224.765 367.397 224.799 367.809C224.811 367.951 224.793 368.095 224.746 368.23C224.7 368.365 224.626 368.489 224.529 368.594C224.432 368.699 224.314 368.783 224.183 368.84C224.052 368.897 223.911 368.926 223.768 368.926ZM245.791 375.151C245.521 375.151 245.263 375.046 245.07 374.858C244.877 374.67 244.765 374.413 244.758 374.144C244.752 373.905 243.884 349.812 221.409 319.787C221.328 319.678 221.269 319.555 221.235 319.423C221.202 319.292 221.194 319.155 221.214 319.021C221.233 318.887 221.278 318.757 221.348 318.641C221.417 318.524 221.508 318.422 221.617 318.341C221.726 318.26 221.849 318.201 221.981 318.167C222.112 318.134 222.249 318.126 222.383 318.146C222.517 318.165 222.646 318.21 222.763 318.28C222.88 318.349 222.982 318.44 223.063 318.549C245.967 349.148 246.799 373.09 246.824 374.095C246.83 374.369 246.728 374.634 246.539 374.832C246.35 375.03 246.09 375.145 245.816 375.152L245.791 375.151Z" fill="black"/>
<path d="M456.105 271.76C456.105 271.76 481.543 296.704 489.155 291.268C496.765 285.832 481.731 241.436 445.76 226.938C450.867 244.849 456.105 271.76 456.105 271.76Z" fill="#FF0000"/>
<path d="M486.437 294.043C481.973 294.043 475.235 290.484 466.41 283.467C460.025 278.39 454.92 273.398 454.706 273.188C454.417 272.904 454.221 272.54 454.144 272.142C454.091 271.874 448.863 245.108 443.838 227.487C443.736 227.127 443.737 226.745 443.84 226.386C443.944 226.026 444.147 225.703 444.425 225.453C444.703 225.202 445.046 225.035 445.415 224.97C445.783 224.904 446.163 224.944 446.51 225.083C474.847 236.505 490.939 266.09 492.892 282.488C493.507 287.655 492.618 291.255 490.319 292.896C489.252 293.656 487.945 294.043 486.437 294.043ZM457.947 270.762C463.902 276.521 479.381 290.043 486.436 290.043C487.104 290.043 487.613 289.911 487.993 289.64C488.724 289.118 489.406 287.055 488.919 282.961C487.401 270.224 474.14 242.721 448.811 230.475C453.078 246.419 457.196 266.964 457.947 270.762ZM365.096 273.867C361.81 271.048 358.688 336.929 376.084 336.929C394.023 336.929 390.555 302.452 390.555 302.452C390.555 302.452 376.562 283.709 365.096 273.867Z" fill="#FF0000"/>
<path d="M376.084 338.93C370.293 338.93 366.03 333.571 363.412 323.002C360.907 312.884 360.533 300.665 360.533 294.282C360.533 288.801 360.794 283.566 361.267 279.543C361.873 274.394 362.6 271.779 364.889 271.779C365.441 271.779 365.962 271.976 366.398 272.349C377.899 282.221 391.581 300.484 392.157 301.256C392.374 301.547 392.509 301.891 392.545 302.252C392.638 303.177 394.724 325 386.135 334.496C383.475 337.438 380.093 338.93 376.084 338.93ZM365.654 277.04C364.016 285.682 363.26 318.218 370.522 330.709C372.173 333.549 373.993 334.93 376.084 334.93C378.953 334.93 381.27 333.911 383.166 331.818C389.893 324.384 388.869 306.545 388.61 303.198C386.538 300.465 375.437 286.024 365.654 277.04Z" fill="#FF0000"/>
<path d="M185.438 80.647C182.721 105.736 180.49 171.387 259.681 209.333C338.87 247.277 405.691 284.4 423.013 382.564C427.136 418.86 451.882 404.012 452.707 382.564C453.532 361.115 487.98 238.533 386.717 126.017C305.048 35.279 243.489 46.062 216.782 51.777C195.062 56.428 187.157 64.794 185.438 80.647Z" fill="#F8FFFF"/>
<path d="M436.584 406.565C425.013 406.564 421.856 390.034 421.033 382.852C413.104 337.979 394.726 303.658 363.198 274.842C334.12 248.265 297.231 229.542 258.817 211.136C203.141 184.458 177.08 139.261 183.45 80.432C185.332 63.072 194.56 54.489 216.364 49.821C225.341 47.901 235.34 46.123 247.624 46.123C293.99 46.123 341.288 72.554 388.204 124.68C477.644 224.059 462.066 330.493 456.201 370.562C455.421 375.897 454.804 380.111 454.706 382.642C454.216 395.386 445.748 406.565 436.584 406.565ZM247.624 50.123C235.712 50.123 225.963 51.858 217.202 53.733C197.176 58.02 189.106 65.373 187.427 80.863C181.256 137.851 206.54 181.652 260.546 207.529C299.241 226.07 336.416 244.944 365.898 271.889C398.124 301.344 416.899 336.401 424.984 382.216C424.991 382.256 424.997 382.297 425.002 382.338C426.44 395.002 430.771 402.564 436.584 402.565C444.105 402.566 450.354 391.773 450.711 382.487C450.816 379.743 451.415 375.648 452.245 369.981C458.035 330.421 473.416 225.337 385.232 127.355C339.106 76.108 292.809 50.123 247.624 50.123Z" fill="#AA0909"/>
<path d="M236.689 196.098C233.395 193.583 258.12 295.073 312.481 287.1C347.273 281.3 306.113 232.876 304.628 232.065C303.143 231.254 247.559 204.394 236.689 196.098Z" fill="#F8FFFF"/>
<path d="M306.442 289.546C280.679 289.543 262.617 265.916 252 246.096C240.569 224.756 234.4 201.493 234.399 196.689C234.399 196.285 234.437 195.96 234.52 195.668C234.794 194.701 235.623 194.052 236.581 194.052C236.915 194.052 237.244 194.136 237.538 194.296C237.831 194.455 238.08 194.686 238.261 194.967C238.443 195.248 238.551 195.57 238.576 195.903C238.6 196.236 238.541 196.57 238.404 196.875C238.591 200.668 243.922 222.543 255.526 244.207C265.627 263.064 282.66 285.543 306.442 285.546C306.972 285.546 307.481 285.757 307.856 286.132C308.231 286.507 308.442 287.016 308.442 287.546C308.442 288.076 308.231 288.585 307.856 288.96C307.481 289.335 306.972 289.546 306.442 289.546Z" fill="#AA0909"/>
<path d="M344.251 85.962C344.251 85.962 426.279 67.48 463.968 132.713C477.015 158.807 461.069 168.229 445.123 163.88C429.177 159.531 406.514 150.411 406.514 150.411C406.514 150.411 374.6 105.9 344.251 85.962Z" fill="#F8FFFF"/>
<path d="M452.446 166.898C449.887 166.898 447.247 166.532 444.596 165.809C428.722 161.48 405.994 152.358 405.766 152.266C405.414 152.124 405.109 151.885 404.888 151.576C404.571 151.135 372.836 107.135 343.152 87.6339C342.824 87.4184 342.566 87.111 342.411 86.7501C342.257 86.3891 342.212 85.9906 342.282 85.6043C342.352 85.2179 342.535 84.8608 342.807 84.5775C343.079 84.2941 343.428 84.0971 343.811 84.0109C344.258 83.9099 354.938 81.5439 370.465 81.5439C388.328 81.5439 404.73 84.6139 419.212 90.6689C439.136 98.9979 454.776 112.807 465.698 131.712C465.719 131.747 465.737 131.782 465.756 131.818C472.939 146.183 471.1 154.613 468.292 159.155C465.252 164.076 459.476 166.898 452.446 166.898ZM407.793 148.769C411.3 150.163 431.345 158.049 445.649 161.951C447.957 162.581 450.243 162.899 452.446 162.899C458.14 162.899 462.56 160.823 464.89 157.052C468.143 151.789 467.214 143.702 462.205 133.661C439.199 93.8919 399.621 85.5439 370.465 85.5439C361.38 85.5439 353.909 86.3979 349.392 87.0809C363.933 97.5869 378.371 112.895 388.276 124.355C398.611 136.312 406.128 146.485 407.793 148.769Z" fill="#AA0909"/>
<path d="M452.708 382.564C452.708 382.564 526.806 425.174 501.658 453.807C478.21 480.505 463.092 422.896 440.261 423.984C417.427 425.072 414.63 468.539 386.412 461.406C363.01 455.492 382.42 403.734 423.014 382.564C437.513 375.528 452.708 382.564 452.708 382.564Z" fill="#FF0000"/>
<path d="M392.407 464.196C390.339 464.196 388.156 463.91 385.922 463.345C379.425 461.702 375.369 456.724 374.502 449.324C373.382 439.759 377.667 426.489 385.964 413.829C395.082 399.917 407.911 388.183 422.089 380.79C426.691 378.556 431.743 377.436 437.156 377.436C446.29 377.436 453.257 380.613 453.549 380.748C453.602 380.772 453.654 380.8 453.705 380.829C453.83 380.9 466.375 388.148 479.272 398.504C496.821 412.595 506.668 425.47 508.54 436.771C509.671 443.599 507.861 449.774 503.161 455.125C498.582 460.339 494.01 462.873 489.182 462.874H489.178C480.042 462.875 472.507 453.841 464.528 444.277C457.019 435.275 449.254 425.966 440.901 425.966C440.72 425.966 440.54 425.971 440.356 425.98C431.084 426.421 425.278 434.876 419.132 443.829C412.257 453.843 405.148 464.196 392.407 464.196ZM437.156 381.438C432.352 381.438 427.888 382.422 423.886 384.365C395.339 399.253 376.348 430.704 378.475 448.861C379.154 454.658 381.989 458.226 386.902 459.467C388.816 459.951 390.669 460.196 392.407 460.196C403.043 460.196 409.256 451.147 415.834 441.566C422.262 432.204 428.909 422.522 440.166 421.986C450.723 421.481 459.307 431.776 467.6 441.716C474.637 450.152 481.915 458.875 489.179 458.875H489.181C492.791 458.874 496.381 456.785 500.156 452.487C504.081 448.017 505.533 443.091 504.594 437.425C500.565 413.095 454.091 385.685 451.795 384.347C451.063 384.027 444.901 381.438 437.156 381.438ZM281.406 52.8051C281.406 52.8051 264.66 103.563 294.647 124.221C324.635 144.877 365.28 149.072 385.087 124.222C360.225 98.3961 337.309 72.5561 281.406 52.8051Z" fill="#FF0000"/>
<path d="M345.931 143.322H345.929C328.721 143.321 309.617 136.96 293.513 125.868C280.666 117.017 274.189 101.401 274.783 80.709C275.224 65.322 279.333 52.708 279.508 52.178C279.591 51.9251 279.724 51.6913 279.899 51.4904C280.074 51.2895 280.287 51.1256 280.526 51.0084C280.765 50.8911 281.025 50.8227 281.291 50.8074C281.557 50.7921 281.823 50.83 282.074 50.919C335.735 69.878 359.74 94.906 382.954 119.11L386.53 122.835C386.867 123.184 387.065 123.644 387.087 124.129C387.11 124.613 386.956 125.09 386.653 125.469C377.342 137.147 363.26 143.322 345.931 143.322ZM282.725 55.399C280.111 64.794 270.644 105.255 295.783 122.573C311.235 133.217 329.512 139.321 345.929 139.322C356.753 139.322 371.697 136.676 382.408 124.318L380.066 121.88C356.424 97.229 334.076 73.929 282.725 55.399Z" fill="#AA0909"/>
<path d="M341.475 178.877C341.475 178.877 387.139 164.606 403.085 192.148C419.03 219.694 397.061 247.38 397.061 247.38C397.061 247.38 366.79 198.688 341.475 178.877Z" fill="#F8CC00"/>
<path d="M397.061 249.381L396.947 249.378C396.627 249.359 396.316 249.264 396.04 249.1C395.765 248.937 395.533 248.709 395.363 248.437C395.062 247.954 364.986 199.815 340.243 180.453C339.955 180.228 339.735 179.929 339.605 179.588C339.476 179.247 339.442 178.877 339.507 178.518C339.573 178.159 339.735 177.825 339.977 177.552C340.219 177.279 340.531 177.077 340.879 176.968C341.374 176.814 353.158 173.181 367.02 173.181C384.943 173.181 398.012 179.394 404.817 191.147C421.255 219.543 398.857 248.337 398.629 248.625C398.247 249.104 397.669 249.381 397.061 249.381ZM345.766 179.808C367.257 198.186 390.795 233.855 397.146 243.776C401.79 236.671 413.813 214.672 401.355 193.151C395.219 182.554 383.667 177.181 367.019 177.181C358.275 177.181 350.241 178.74 345.766 179.808Z" fill="#F8CC00"/>
<path d="M193.906 145.317C193.826 145.129 227.68 139.1 252.323 164.898C276.967 190.699 276.941 218.291 276.941 218.291C276.941 218.291 215.943 196.335 193.906 145.317Z" fill="#FF0000"/>
<path d="M276.941 220.291C276.712 220.291 276.484 220.252 276.263 220.173C275.645 219.95 214.195 197.331 192.07 146.111C191.938 145.806 191.885 145.472 191.914 145.141C191.943 144.809 192.055 144.491 192.238 144.213C192.757 143.43 193.313 143.25 196.209 142.931C198.506 142.689 200.814 142.571 203.124 142.577C214.568 142.577 236.365 145.298 253.77 163.517C278.681 189.599 278.943 217.134 278.942 218.293C278.941 218.823 278.73 219.331 278.355 219.706C277.98 220.08 277.471 220.291 276.941 220.291ZM196.802 146.888C216.202 188.648 262.674 210.244 274.729 215.261C273.91 207.523 269.953 186.251 250.877 166.281C234.501 149.136 213.929 146.577 203.124 146.577C201.013 146.57 198.902 146.673 196.802 146.888Z" fill="#AA0909"/>
<path d="M453.585 259.492C453.585 259.492 424.829 289.999 434.25 324.064C443.672 358.132 454.515 368.273 454.515 368.273C454.515 368.273 464.223 318.863 453.585 259.492Z" fill="#FF0000"/>
<path d="M454.515 370.273C454.015 370.273 453.525 370.085 453.149 369.734C452.69 369.304 441.786 358.815 432.323 324.597C422.713 289.846 450.925 259.399 452.131 258.119C452.385 257.849 452.709 257.655 453.066 257.558C453.424 257.462 453.802 257.467 454.157 257.573C454.512 257.678 454.831 257.881 455.077 258.157C455.324 258.434 455.489 258.773 455.554 259.138C466.135 318.196 456.575 368.159 456.478 368.658C456.388 369.113 456.144 369.523 455.786 369.817C455.428 370.112 454.979 370.273 454.515 370.273ZM452.34 264.058C449.742 267.323 445.695 272.912 442.118 280.007C436.822 290.512 431.492 306.59 436.178 323.531C442.529 346.494 449.561 358.437 453.267 363.593C455.219 350.749 459.993 310.643 452.34 264.058Z" fill="#AA0909"/>
<path d="M258.12 137.786C258.12 137.786 308.857 137.786 360.318 198.671C398.439 243.77 416.856 274.776 424.829 316.091C407.433 282.027 369.017 251.844 326.978 226.345C284.938 200.845 261.745 170.403 258.12 137.786Z" fill="#FF0000"/>
<path d="M424.829 318.091C424.46 318.091 424.099 317.989 423.785 317.797C423.47 317.604 423.215 317.328 423.048 317C408.091 287.711 376.327 258.616 325.942 228.055C283.992 202.61 259.852 171.472 256.133 138.007C256.102 137.727 256.13 137.444 256.215 137.176C256.301 136.908 256.442 136.662 256.63 136.452C256.817 136.242 257.047 136.074 257.304 135.96C257.561 135.845 257.839 135.786 258.12 135.786C258.653 135.786 271.409 135.874 290.661 143.538C308.315 150.566 334.996 165.613 361.846 197.38C402.042 244.934 419.053 275.866 426.74 315.437C426.844 315.737 426.875 316.057 426.83 316.371C426.786 316.685 426.668 316.983 426.485 317.243C426.303 317.502 426.061 317.714 425.781 317.862C425.5 318.009 425.188 318.088 424.871 318.091H424.829ZM260.405 139.921C264.842 171.219 288.164 200.462 328.015 224.635C372.637 251.7 402.899 277.743 420.031 303.892C411.383 270.617 394.206 241.86 358.791 199.962C314.627 147.711 270.762 140.823 260.405 139.921Z" fill="#FF0000"/>
<path d="M481.844 288.579C481.67 288.579 481.493 288.535 481.331 288.442C469.163 281.466 455.262 266.662 454.676 266.035C454.489 265.835 454.389 265.568 454.399 265.295C454.408 265.021 454.526 264.762 454.726 264.575C454.926 264.388 455.193 264.288 455.466 264.298C455.74 264.307 455.999 264.425 456.186 264.625C456.328 264.776 470.463 279.83 482.359 286.649C482.556 286.763 482.711 286.938 482.798 287.148C482.885 287.358 482.901 287.592 482.842 287.812C482.783 288.031 482.654 288.226 482.473 288.365C482.293 288.503 482.072 288.579 481.844 288.579ZM486.669 275.858C486.28 275.858 485.909 275.638 485.732 275.264C478.793 260.483 466.342 246.959 448.729 235.068C446.939 233.86 446.792 233.761 446.658 233.308C446.59 233.079 446.603 232.833 446.696 232.612C446.788 232.391 446.955 232.21 447.167 232.098C447.379 231.987 447.623 231.952 447.857 232.001C448.092 232.049 448.302 232.178 448.452 232.364C448.647 232.52 449.25 232.926 449.885 233.355C467.813 245.459 480.503 259.262 487.604 274.385C487.678 274.542 487.71 274.716 487.699 274.889C487.688 275.063 487.633 275.231 487.54 275.378C487.447 275.524 487.318 275.645 487.166 275.729C487.014 275.813 486.843 275.858 486.669 275.858ZM488.736 288.579C488.391 288.579 488.053 288.406 487.858 288.092C480.216 275.818 451.576 250.488 451.287 250.234C451.185 250.144 451.102 250.035 451.043 249.913C450.983 249.792 450.948 249.659 450.94 249.524C450.931 249.388 450.949 249.253 450.993 249.124C451.037 248.996 451.106 248.878 451.196 248.776C451.286 248.674 451.395 248.591 451.517 248.532C451.638 248.472 451.771 248.437 451.906 248.429C452.042 248.42 452.177 248.438 452.306 248.482C452.434 248.526 452.552 248.595 452.654 248.685C453.841 249.732 481.812 274.471 489.612 287C489.709 287.156 489.763 287.336 489.768 287.52C489.772 287.704 489.728 287.886 489.638 288.047C489.549 288.208 489.418 288.342 489.26 288.436C489.101 288.529 488.92 288.579 488.736 288.579ZM376.678 334.046C376.412 334.046 376.155 333.942 375.963 333.758C375.771 333.573 375.658 333.321 375.647 333.055C375.119 319.967 376.645 299.889 377.297 291.316C377.448 289.326 377.558 287.888 377.564 287.528C377.573 287.255 377.688 286.997 377.884 286.807C378.081 286.618 378.343 286.512 378.616 286.513C379.186 286.524 379.64 286.994 379.631 287.565C379.623 287.986 379.524 289.298 379.358 291.472C378.71 300.01 377.189 320.004 377.712 332.971C377.723 333.245 377.625 333.512 377.439 333.713C377.254 333.914 376.996 334.034 376.722 334.045L376.678 334.046ZM383.461 330.371C383.315 330.371 383.17 330.34 383.036 330.28C382.902 330.22 382.783 330.132 382.686 330.022C382.589 329.912 382.516 329.783 382.473 329.643C382.43 329.503 382.417 329.355 382.435 329.21C383.644 319.534 385.802 297.59 385.824 297.37C385.852 297.098 385.986 296.847 386.197 296.673C386.409 296.499 386.68 296.416 386.953 296.442C387.521 296.498 387.936 297.004 387.881 297.571C387.86 297.792 385.698 319.763 384.486 329.466C384.454 329.716 384.333 329.945 384.144 330.112C383.956 330.278 383.713 330.371 383.461 330.371ZM369.065 324.553C368.8 324.553 368.545 324.451 368.353 324.268C368.161 324.085 368.047 323.835 368.034 323.57C367.01 302.392 370.15 279.812 370.182 279.587C370.261 279.023 370.78 278.615 371.349 278.709C371.913 278.788 372.307 279.311 372.227 279.876C372.196 280.1 369.082 302.493 370.098 323.471C370.111 323.745 370.015 324.012 369.831 324.215C369.647 324.418 369.39 324.54 369.116 324.553H369.065ZM459.01 154.621C458.717 154.621 458.427 154.498 458.223 154.258C432.33 123.853 381.457 119.599 380.947 119.56C380.378 119.516 379.952 119.019 379.996 118.451C380.04 117.883 380.549 117.454 381.105 117.5C381.625 117.54 433.352 121.867 459.795 152.919C459.923 153.069 460.005 153.253 460.031 153.448C460.058 153.643 460.028 153.842 459.946 154.021C459.863 154.2 459.732 154.351 459.566 154.457C459.4 154.564 459.207 154.621 459.01 154.621ZM450.06 158.235C449.862 158.235 449.668 158.178 449.501 158.07C423.622 141.409 395.578 137.122 395.298 137.081C395.027 137.041 394.783 136.895 394.619 136.675C394.456 136.455 394.386 136.179 394.426 135.908C394.466 135.637 394.612 135.393 394.832 135.229C395.052 135.065 395.328 134.996 395.599 135.036C395.883 135.078 424.352 139.421 450.62 156.334C450.807 156.455 450.951 156.633 451.028 156.842C451.106 157.051 451.114 157.28 451.051 157.494C450.988 157.708 450.857 157.896 450.679 158.029C450.5 158.163 450.283 158.235 450.06 158.235Z" fill="black"/>
<path d="M458.566 140.524C458.28 140.524 457.995 140.406 457.791 140.173C417.277 94.16 365.829 103.183 365.313 103.278C365.044 103.329 364.765 103.27 364.539 103.115C364.313 102.961 364.157 102.722 364.107 102.453C364.056 102.184 364.115 101.905 364.27 101.679C364.424 101.453 364.663 101.298 364.932 101.247C365.472 101.146 378.351 98.81 396.522 102.242C413.277 105.404 437.777 114.316 459.341 138.807C459.473 138.956 459.559 139.14 459.589 139.337C459.619 139.534 459.592 139.735 459.51 139.917C459.428 140.098 459.295 140.252 459.128 140.36C458.96 140.468 458.765 140.525 458.566 140.524ZM309.464 282.634C309.148 282.634 308.836 282.489 308.634 282.217C286.646 252.597 272.699 219.021 272.561 218.685C272.509 218.56 272.483 218.425 272.483 218.289C272.483 218.154 272.51 218.019 272.563 217.894C272.615 217.769 272.691 217.655 272.787 217.559C272.883 217.464 272.997 217.388 273.123 217.336C273.248 217.284 273.383 217.258 273.519 217.258C273.654 217.258 273.789 217.285 273.914 217.338C274.039 217.39 274.153 217.466 274.249 217.562C274.344 217.658 274.42 217.773 274.472 217.898C274.61 218.231 288.463 251.579 310.293 280.985C310.407 281.139 310.477 281.321 310.494 281.512C310.51 281.703 310.474 281.894 310.388 282.066C310.302 282.237 310.17 282.381 310.007 282.481C309.843 282.581 309.655 282.634 309.464 282.634ZM317.924 277.472C317.551 277.472 317.192 277.27 317.007 276.917C316.832 276.581 299.351 243.135 288.811 225.21C288.674 224.974 288.636 224.693 288.706 224.43C288.775 224.166 288.946 223.94 289.181 223.802C289.417 223.664 289.697 223.624 289.961 223.692C290.225 223.759 290.452 223.929 290.592 224.163C301.158 242.133 318.663 275.624 318.839 275.96C318.921 276.118 318.961 276.293 318.955 276.471C318.949 276.648 318.898 276.821 318.806 276.973C318.714 277.125 318.585 277.25 318.43 277.338C318.276 277.425 318.101 277.471 317.924 277.472ZM296.256 280.764C295.972 280.764 295.689 280.647 295.485 280.417C295.4 280.322 286.891 270.729 277.29 256.937C268.416 244.189 256.756 225.131 251.61 206.737C251.573 206.606 251.563 206.47 251.579 206.335C251.595 206.2 251.638 206.07 251.705 205.952C251.771 205.834 251.861 205.73 251.967 205.646C252.074 205.562 252.196 205.501 252.327 205.464C252.591 205.392 252.872 205.427 253.111 205.561C253.349 205.696 253.525 205.918 253.6 206.181C258.667 224.297 270.202 243.14 278.986 255.758C288.517 269.449 296.944 278.95 297.028 279.045C297.161 279.194 297.248 279.378 297.279 279.575C297.309 279.772 297.282 279.973 297.201 280.155C297.119 280.337 296.986 280.492 296.818 280.6C296.651 280.708 296.455 280.765 296.256 280.764ZM386.851 456.606C386.676 456.606 386.505 456.561 386.352 456.477C386.199 456.392 386.07 456.27 385.978 456.123C385.885 455.975 385.831 455.806 385.821 455.632C385.811 455.457 385.845 455.283 385.921 455.126C385.986 454.989 392.578 441.302 402.144 427.798C415.123 409.476 427.125 400.185 437.821 400.185C448.464 400.185 461.262 408.31 475.86 424.333C486.638 436.164 494.461 448.157 494.538 448.277C494.687 448.507 494.739 448.787 494.682 449.055C494.625 449.322 494.464 449.557 494.234 449.706C494.004 449.855 493.724 449.907 493.456 449.85C493.188 449.793 492.954 449.632 492.805 449.402C492.498 448.93 461.907 402.251 437.821 402.251C413.816 402.251 388.043 455.48 387.785 456.019C387.605 456.39 387.236 456.606 386.851 456.606Z" fill="black"/>
<path d="M395.68 459.598C395.5 459.598 395.323 459.55 395.166 459.46C395.01 459.371 394.88 459.241 394.789 459.086C394.698 458.93 394.649 458.753 394.648 458.573C394.646 458.393 394.692 458.215 394.78 458.058C395.8 456.246 419.974 413.65 438.565 413.65C458.579 413.65 485.644 452.099 486.786 453.736C486.864 453.847 486.919 453.973 486.948 454.105C486.977 454.238 486.98 454.375 486.957 454.508C486.933 454.642 486.883 454.769 486.81 454.884C486.736 454.998 486.641 455.097 486.53 455.174C486.419 455.252 486.293 455.307 486.161 455.337C486.028 455.366 485.891 455.369 485.758 455.345C485.624 455.321 485.496 455.271 485.382 455.198C485.268 455.125 485.169 455.03 485.092 454.918C484.818 454.526 457.506 415.717 438.565 415.717C421.175 415.717 396.825 458.639 396.581 459.072C396.392 459.408 396.041 459.598 395.68 459.598Z" fill="black"/>
<path d="M380.472 451.62C380.306 451.62 380.142 451.58 379.995 451.503C379.847 451.426 379.721 451.315 379.626 451.179C379.53 451.042 379.47 450.885 379.448 450.72C379.427 450.556 379.446 450.388 379.503 450.232C379.562 450.073 385.461 434.114 395.382 418.371C408.825 397.04 422.852 386.224 437.07 386.224C471.23 386.224 502.446 440.243 502.628 440.787C502.706 441.039 502.685 441.311 502.569 441.547C502.453 441.784 502.251 441.967 502.004 442.06C501.758 442.153 501.485 442.148 501.242 442.047C500.999 441.945 500.804 441.755 500.696 441.514C500.182 440.535 469.861 388.29 437.071 388.29C404.801 388.29 381.674 450.317 381.443 450.943C381.288 451.361 380.893 451.62 380.472 451.62ZM362.533 248.414C362.24 248.414 361.949 248.29 361.744 248.05C330.863 211.668 332.004 171.853 332.019 171.455C332.04 170.885 332.523 170.465 333.09 170.462C333.659 170.483 334.105 170.963 334.083 171.533C334.068 171.923 332.979 210.969 363.319 246.712C363.446 246.862 363.527 247.046 363.553 247.241C363.58 247.436 363.55 247.634 363.467 247.813C363.385 247.992 363.253 248.143 363.088 248.249C362.922 248.356 362.73 248.413 362.533 248.414ZM397.588 280.764C397.158 280.764 396.756 280.493 396.61 280.064C386.007 248.933 371.574 214.054 371.429 213.706C371.377 213.581 371.35 213.446 371.35 213.311C371.35 213.175 371.377 213.041 371.429 212.915C371.481 212.79 371.557 212.676 371.653 212.58C371.749 212.484 371.863 212.408 371.988 212.356C372.113 212.304 372.248 212.277 372.383 212.277C372.519 212.277 372.653 212.304 372.779 212.356C372.904 212.408 373.018 212.484 373.114 212.58C373.21 212.676 373.286 212.79 373.338 212.915C373.483 213.265 387.942 248.203 398.566 279.398C398.619 279.554 398.635 279.719 398.611 279.882C398.587 280.045 398.524 280.199 398.429 280.333C398.333 280.466 398.207 280.575 398.061 280.65C397.914 280.725 397.752 280.764 397.588 280.764ZM379.558 264.25C379.184 264.25 378.823 264.047 378.639 263.691C359.727 227.114 352.366 191.298 352.293 190.941C352.266 190.808 352.266 190.671 352.292 190.538C352.318 190.405 352.37 190.278 352.446 190.165C352.521 190.052 352.617 189.955 352.73 189.879C352.843 189.804 352.969 189.751 353.102 189.724C353.235 189.697 353.372 189.697 353.505 189.723C353.638 189.749 353.765 189.801 353.878 189.876C353.991 189.952 354.088 190.048 354.164 190.161C354.24 190.274 354.292 190.4 354.319 190.533C354.39 190.887 361.701 226.432 380.475 262.742C380.556 262.9 380.595 263.075 380.589 263.252C380.582 263.429 380.531 263.601 380.439 263.753C380.347 263.904 380.217 264.029 380.063 264.116C379.909 264.203 379.735 264.249 379.558 264.25ZM413.035 298.504C412.535 298.504 412.096 298.141 412.015 297.632C408.878 277.756 396.757 248.898 396.635 248.608C396.582 248.483 396.555 248.349 396.554 248.213C396.553 248.077 396.579 247.943 396.63 247.817C396.681 247.691 396.757 247.577 396.852 247.48C396.947 247.384 397.061 247.307 397.186 247.254C397.311 247.201 397.445 247.174 397.581 247.173C397.717 247.172 397.851 247.198 397.977 247.249C398.103 247.3 398.217 247.376 398.314 247.471C398.41 247.566 398.487 247.68 398.54 247.805C398.663 248.096 410.881 277.188 414.057 297.31C414.08 297.458 414.071 297.608 414.03 297.752C413.99 297.896 413.918 298.029 413.821 298.142C413.724 298.256 413.603 298.347 413.468 298.409C413.332 298.472 413.184 298.504 413.035 298.504ZM339.055 234.047C338.73 234.047 338.409 233.894 338.208 233.608C314.159 199.353 306.13 154.216 306.052 153.765C306.029 153.631 306.032 153.494 306.061 153.362C306.091 153.23 306.147 153.104 306.225 152.993C306.303 152.883 306.402 152.788 306.517 152.716C306.631 152.643 306.759 152.594 306.893 152.571C307.027 152.547 307.164 152.55 307.296 152.58C307.429 152.609 307.554 152.664 307.665 152.743C307.776 152.821 307.871 152.92 307.943 153.035C308.016 153.15 308.064 153.278 308.087 153.412C308.165 153.86 316.122 198.553 339.899 232.421C340.007 232.576 340.071 232.757 340.083 232.945C340.095 233.134 340.056 233.322 339.969 233.489C339.882 233.657 339.751 233.797 339.59 233.896C339.429 233.994 339.244 234.046 339.055 234.047ZM317.924 221.61C317.769 221.61 317.615 221.575 317.475 221.508C317.336 221.441 317.213 221.343 317.116 221.221C289.067 186.121 285.383 145.072 285.349 144.66C285.338 144.525 285.353 144.389 285.395 144.26C285.436 144.131 285.502 144.011 285.59 143.907C285.678 143.804 285.785 143.719 285.906 143.657C286.026 143.595 286.158 143.557 286.293 143.546C286.845 143.484 287.359 143.921 287.407 144.49C287.441 144.894 291.087 185.341 318.728 219.931C318.813 220.037 318.876 220.158 318.913 220.289C318.951 220.419 318.963 220.555 318.948 220.69C318.933 220.825 318.891 220.955 318.826 221.074C318.76 221.193 318.672 221.297 318.566 221.382C318.385 221.53 318.158 221.61 317.924 221.61ZM287.911 194.334C287.597 194.334 287.286 194.191 287.083 193.92C264.179 163.322 263.347 139.379 263.322 138.374C263.316 138.1 263.419 137.835 263.608 137.637C263.796 137.439 264.056 137.324 264.33 137.317H264.355C264.914 137.317 265.374 137.762 265.388 138.324C265.394 138.563 266.262 162.657 288.737 192.681C288.852 192.834 288.922 193.017 288.94 193.208C288.957 193.399 288.921 193.591 288.835 193.763C288.749 193.934 288.617 194.079 288.454 194.18C288.291 194.281 288.103 194.334 287.911 194.334Z" fill="black"/>
<path d="M282.979 448.604C282.807 444.843 277.158 442.045 270.363 442.356C263.568 442.667 258.198 445.968 258.37 449.73C258.542 453.492 264.191 456.289 270.986 455.978C277.781 455.667 283.151 452.366 282.979 448.604Z" fill="black"/>
<path d="M312.327 414.648C316.042 414.043 318.168 408.11 317.074 401.397C315.981 394.683 312.083 389.731 308.368 390.336C304.652 390.941 302.526 396.874 303.62 403.588C304.713 410.301 308.611 415.253 312.327 414.648Z" fill="black"/>
<path d="M236.166 67.5481C242.963 67.2381 248.332 63.9361 248.158 60.1741C247.986 56.4131 242.339 53.6161 235.543 53.9281C228.747 54.2371 223.377 57.5401 223.551 61.3011C223.723 65.0611 229.369 67.8591 236.166 67.5481ZM189.441 108.557C190.536 115.274 194.433 120.223 198.15 119.618C201.866 119.013 203.992 113.079 202.896 106.366C201.802 99.6491 197.903 94.7001 194.187 95.3051C190.473 95.9101 188.344 101.843 189.441 108.557Z" fill="black"/>
<path d="M228.74 457.664C228.74 457.664 245.486 406.906 215.499 386.248C185.511 365.592 144.866 361.397 125.059 386.247C149.922 412.073 177.106 442.364 228.74 457.664Z" fill="#F8CC00"/>
</svg>
