<svg xmlns="http://www.w3.org/2000/svg" xmlns:xlink="http://www.w3.org/1999/xlink" version="1.1" id="Layer_1" x="0px" y="0px" viewBox="0 0 500 500" style="enable-background:new 0 0 500 500;" xml:space="preserve" width="500"  height="500" >
<style type="text/css">
	.st0{fill:#FFFFFF;}
</style>
<path class="st0" d="M239.6,378.1c-8.3-12.1-17.9-25.9-28.6-41.1c-10.4-15.3-17.9-26-22.4-32.3c-4.5-6.3-9.7-13.9-15.6-22.9  c-5.9-9.4-9.9-16-12-19.8c-1.7-3.8-3.8-8.7-6.3-14.6c-1.8-4.9-3.2-10-4.2-15.1c-0.4-4.5-0.5-9.7-0.5-15.6c0-27.8,9.7-51.4,29.2-70.8  s43.1-29.2,70.9-29.2c27.8,0,51.4,9.7,70.8,29.2c19.4,19.4,29.2,43.1,29.2,70.8c0.1,5.2-0.3,10.4-1,15.6c-0.6,5.2-2,10.3-4.2,15.1  c-1.7,5-3.8,9.9-6.3,14.6c-1.7,3.8-5.6,10.4-11.5,19.8c-5.9,9-11.1,16.7-15.6,22.9c-4.5,6.2-12.2,17-22.9,32.3  c-10.4,15.3-19.8,29-28.1,41.1c-4.3,5.8-12.4,6.9-18.2,2.6C241.2,380,240.3,379.2,239.6,378.1L239.6,378.1z M220.3,246.4  c7.9,7.8,18.6,12.1,29.7,12c11,0.2,21.5-4.1,29.2-12c8.3-8.3,12.5-18.2,12.5-29.7c0.2-11.1-4.4-21.7-12.5-29.2  c-7.5-8.1-18.1-12.7-29.2-12.5c-11.5,0-21.4,4.2-29.7,12.5c-7.9,7.7-12.2,18.2-12,29.2C208.2,227.8,212.5,238.5,220.3,246.4z"/>
<path class="st0" d="M250,466.7c-119.7,0-216.7-97-216.7-216.7H0c0,138.1,111.9,250,250,250V466.7z M466.7,250  c0,119.7-97,216.7-216.7,216.7V500c138.1,0,250-111.9,250-250H466.7z M250,33.3c119.7,0,216.7,97,216.7,216.7H500  C500,111.9,388.1,0,250,0V33.3z M250,0C111.9,0,0,111.9,0,250h33.3c0-119.7,97-216.7,216.7-216.7V0z"/>
</svg>