<svg width="1324" height="1324" viewBox="0 0 1324 1324" fill="none" xmlns="http://www.w3.org/2000/svg">
<path d="M174.256 636.942C174.256 636.942 62.2148 715.058 62.8484 886.012C63.5052 1063.29 185.194 1267.08 651.211 1267.08H624.343C1090.36 1267.08 1212.05 1063.28 1212.7 886.012C1213.04 795.543 1181.82 731.073 1152.35 690.419L1178.65 733.912C1178.65 733.912 1243.89 681.674 1251.67 511.496C1240 395.775 921.051 407.445 641.961 407.445C362.871 407.445 236.042 482.014 178.468 629.161" fill="#F8CC00"/>
<path d="M651.212 1272.25H624.344C623.777 1272.25 623.234 1272.16 622.725 1271.99C424.66 1268.36 275.558 1226.36 179.232 1147.02C79.2592 1064.67 57.9485 959.639 57.677 886.03C57.346 796.391 88.1471 732.371 114.043 694.448C142.185 653.241 170.121 633.518 171.298 632.696C172.128 632.117 173.067 631.817 174.005 631.773C173.61 631.099 173.372 630.344 173.311 629.565C173.25 628.786 173.366 628.004 173.651 627.276C235.359 469.565 375.416 402.274 641.964 402.274C665.302 402.274 688.922 402.193 712.617 402.111C841.537 401.666 974.855 401.203 1076.16 414.159C1194.28 429.26 1251.68 460.025 1256.82 510.979C1256.85 511.229 1256.86 511.48 1256.84 511.734C1252.78 600.553 1232.86 657.071 1216.87 688.845C1203.52 715.366 1190.68 729.594 1184.96 735.156C1203.25 773.195 1218.11 823.427 1217.88 886.03C1217.61 959.639 1196.3 1064.67 1096.32 1147.02C999.998 1226.36 850.895 1268.36 652.833 1271.99C652.321 1272.16 651.778 1272.25 651.212 1272.25ZM178.717 634.328C179.374 635.45 179.584 636.778 179.306 638.047C179.028 639.317 178.283 640.436 177.217 641.181C176.943 641.372 149.4 660.885 122.318 700.68C97.3711 737.336 67.7001 799.238 68.0207 885.991C68.2845 957.384 88.9332 1059.24 185.808 1139.03C282.669 1218.82 434.696 1260.11 637.778 1261.85C840.859 1260.11 992.884 1218.81 1089.75 1139.03C1186.62 1059.24 1207.27 957.386 1207.53 885.991C1207.76 823.143 1192.36 773.201 1173.82 735.924L1147.93 693.096C1147.23 691.954 1147.01 690.588 1147.3 689.283C1147.59 687.979 1148.37 686.838 1149.49 686.099C1150.6 685.36 1151.96 685.082 1153.27 685.321C1154.59 685.561 1155.76 686.3 1156.54 687.384C1164.24 698.004 1172.34 710.657 1180.04 725.348C1194.78 709.55 1240.08 650.131 1246.49 511.646C1241.71 467.106 1185.56 438.572 1074.85 424.42C974.216 411.549 841.247 412.012 712.651 412.454C688.946 412.537 665.315 412.617 641.964 412.617C505.598 412.617 403.378 430.652 329.469 467.744C259.608 502.807 213.156 554.697 183.284 631.041C182.922 631.972 182.297 632.777 181.487 633.361C180.676 633.944 179.714 634.28 178.717 634.328Z" fill="#F8CC00"/>
<path d="M638.675 690.425C1057.31 690.425 1120.03 559.144 1111.05 454.236C1102.23 351.163 1064.6 309.715 1047.1 258.664C1029.59 207.609 1058.39 72.6106 1011.19 50.0767C963.986 27.5403 818.09 114.255 797.671 124.469C777.25 134.678 727.654 114.257 638.677 114.257H641.964C552.987 114.257 503.392 134.678 482.97 124.469C462.552 114.257 316.656 27.5429 269.455 50.0767C222.254 72.6106 251.048 207.609 233.544 258.664C216.037 309.715 178.414 351.163 169.591 454.236C160.61 559.144 223.332 690.425 641.967 690.425H638.675Z" fill="#F8CC00"/>
<path d="M642.016 695.596H638.678L638.502 695.594C418.811 695.216 273.541 658.085 206.707 585.229C174.225 549.819 160.002 505.597 164.437 453.793C170.726 380.332 191.212 338.264 209.285 301.148C216.627 286.069 223.562 271.826 228.651 256.988C234.997 238.478 234.989 207.767 234.979 175.252C234.964 118.994 234.945 60.8212 267.223 45.4116C273.098 42.6059 280.479 41.1836 289.157 41.1836C341.396 41.1836 433.279 91.4878 472.516 112.969C478.282 116.129 482.839 118.622 485.282 119.843C488.396 121.399 492.818 122.157 498.804 122.157C508.22 122.157 520.573 120.342 536.215 118.045C561.213 114.373 595.314 109.367 638.331 109.095C638.445 109.09 638.559 109.085 638.675 109.085H641.962C642.078 109.085 642.194 109.09 642.308 109.098C685.341 109.367 719.429 114.373 744.419 118.045C760.061 120.342 772.417 122.157 781.835 122.157C787.821 122.157 792.243 121.399 795.357 119.843C797.801 118.62 802.357 116.127 808.124 112.969C847.36 91.4878 939.249 41.1836 991.482 41.1836C1000.16 41.1836 1007.54 42.6059 1013.42 45.4116C1045.69 60.8212 1045.68 118.994 1045.66 175.252C1045.65 207.767 1045.64 238.478 1051.99 256.988C1057.08 271.826 1064.01 286.069 1071.36 301.148C1089.43 338.266 1109.92 380.332 1116.2 453.793C1120.64 505.597 1106.42 549.819 1073.93 585.229C1007.11 658.08 861.862 695.209 642.194 695.594L642.016 695.596ZM289.157 51.5273C282.033 51.5273 276.152 52.6109 271.681 54.7443C245.292 67.3429 245.307 124.671 245.323 175.249C245.331 208.651 245.341 240.2 238.434 260.342C233.138 275.785 226.068 290.305 218.582 305.676C200.902 341.982 180.866 383.132 174.74 454.678C170.563 503.477 183.881 545.048 214.325 578.236C279.302 649.073 422.63 685.074 640.322 685.253C858.006 685.077 1001.33 649.073 1066.31 578.236C1096.76 545.048 1110.07 503.477 1105.9 454.678C1099.77 383.132 1079.74 341.982 1062.06 305.676C1054.57 290.305 1047.5 275.782 1042.2 260.342C1035.3 240.2 1035.31 208.651 1035.31 175.249C1035.33 124.671 1035.34 67.3429 1008.96 54.7443C1004.48 52.6109 998.604 51.5273 991.48 51.5273C941.892 51.5273 848.317 102.757 813.089 122.043C806.999 125.379 802.598 127.789 799.981 129.098C795.336 131.417 789.57 132.501 781.832 132.501C771.659 132.501 758.975 130.636 742.914 128.278C717.846 124.596 683.512 119.553 640.301 119.431C597.119 119.553 562.783 124.596 537.712 128.278C521.654 130.636 508.97 132.501 498.799 132.501C491.064 132.501 485.298 131.42 480.651 129.098C478.037 127.789 473.635 125.379 467.543 122.043C432.322 102.755 338.75 51.5273 289.157 51.5273Z" fill="#F8CC00"/>
<path d="M641.964 690.425C1038.72 690.425 1093.3 555.121 1093.3 555.121C1093.3 555.121 1119.69 588.319 1105.46 629.161C1091.23 670.003 932.236 768.039 641.964 768.039C351.693 768.039 192.699 670.003 178.469 629.161C164.238 588.319 190.63 555.121 190.63 555.121C190.63 555.121 245.209 690.425 641.964 690.425Z" fill="#FF0000"/>
<path d="M641.964 773.211C481.618 773.211 370.141 743.594 304.861 718.748C224.7 688.24 181.168 652.626 173.584 630.863C158.588 587.825 185.433 553.347 186.581 551.904C187.144 551.197 187.883 550.65 188.724 550.317C189.564 549.984 190.477 549.877 191.372 550.007C192.267 550.137 193.112 550.499 193.823 551.056C194.535 551.614 195.088 552.348 195.427 553.186C195.554 553.491 209.748 586.392 271.368 618.967C375.018 673.756 530.11 685.255 641.964 685.255C753.819 685.255 908.913 673.756 1012.56 618.967C1074.18 586.392 1088.38 553.494 1088.51 553.166C1088.86 552.333 1089.42 551.604 1090.13 551.05C1090.84 550.497 1091.68 550.139 1092.58 550.011C1093.47 549.887 1094.38 549.996 1095.21 550.328C1096.05 550.66 1096.78 551.203 1097.35 551.904C1098.5 553.349 1125.34 587.828 1110.34 630.863C1102.76 652.626 1059.23 688.24 979.064 718.748C913.788 743.594 802.31 773.211 641.964 773.211ZM190.284 565.17C183.922 576.413 173.884 600.292 183.351 627.46C189.924 646.327 231.904 679.915 308.539 709.082C373.009 733.618 483.188 762.867 641.964 762.867C800.738 762.867 910.917 733.618 975.39 709.082C1052.02 679.915 1094.01 646.324 1100.58 627.46C1110.04 600.297 1100.01 576.418 1093.64 565.17C1085.66 577.618 1065.24 602.526 1018.85 627.333C913.374 683.753 755.678 695.597 641.964 695.597C528.25 695.597 370.555 683.753 265.074 627.333C218.695 602.526 198.267 577.616 190.284 565.17ZM537.254 354.449C522.84 364.659 505.336 331.111 429.866 324.225C386.497 320.268 370.658 340.834 353.154 332.57C340.891 326.777 339.053 283.463 430.463 281.029C493.645 279.348 560.37 338.078 537.254 354.449ZM312.074 121.756C302.702 128.86 287.564 213.629 298.58 228.214C315.653 250.815 436.452 176.837 425.291 155.772C414.128 134.712 332.552 106.238 312.074 121.756Z" fill="#FF0000"/>
<path d="M309.997 237.635H309.992C302.837 237.632 297.611 235.514 294.453 231.33C282.116 215 296.377 127.163 308.947 117.634C313.757 113.988 321.042 112.142 330.599 112.142C367.982 112.142 420.838 136.328 429.861 153.351C432.18 157.729 431.49 163.054 427.805 169.175C412.884 193.963 342.319 237.635 309.997 237.635ZM330.599 122.485C321.569 122.485 317.238 124.329 315.195 125.878C308.272 132.568 293.3 212.647 302.705 225.098C304.073 226.908 307.422 227.288 309.992 227.291C338.448 227.294 405.785 185.694 418.94 163.842C420.942 160.514 421.001 158.725 420.719 158.195C413.419 144.419 362.921 122.485 330.599 122.485ZM330.294 417.789C329.05 417.789 327.783 417.564 326.552 417.088C325.862 416.819 256.918 390.43 212.9 404.645C211.602 405.088 210.228 405.268 208.859 405.174C207.49 405.081 206.153 404.716 204.926 404.101C203.7 403.486 202.608 402.634 201.714 401.592C200.82 400.551 200.142 399.343 199.72 398.037C199.298 396.731 199.14 395.355 199.255 393.987C199.37 392.62 199.756 391.289 200.39 390.073C201.024 388.856 201.895 387.777 202.95 386.9C204.005 386.023 205.224 385.365 206.536 384.963C257.588 368.46 330.954 396.6 334.054 397.808C336.302 398.684 338.172 400.317 339.343 402.427C340.513 404.536 340.91 406.988 340.464 409.358C340.018 411.729 338.757 413.869 336.9 415.409C335.043 416.948 332.706 417.79 330.294 417.789ZM209.727 468.846C207.412 468.85 205.163 468.076 203.339 466.65C201.516 465.224 200.223 463.227 199.669 460.98C199.114 458.732 199.33 456.363 200.281 454.252C201.232 452.142 202.864 450.411 204.915 449.338C248.429 426.524 323.356 441.399 326.524 442.043C329.211 442.589 331.572 444.181 333.086 446.467C334.601 448.753 335.145 451.548 334.6 454.235C334.331 455.567 333.802 456.833 333.043 457.96C332.284 459.087 331.311 460.053 330.179 460.804C329.046 461.554 327.777 462.074 326.444 462.334C325.11 462.593 323.738 462.587 322.407 462.316C321.701 462.172 251.506 448.272 214.522 467.662C213.043 468.438 211.398 468.845 209.727 468.846ZM231.607 536.427C229.383 536.429 227.218 535.715 225.432 534.39C223.646 533.065 222.335 531.2 221.693 529.071C221.05 526.942 221.111 524.663 221.866 522.571C222.621 520.479 224.03 518.687 225.884 517.459C266.644 490.459 327.155 486.728 329.71 486.585C335.471 486.252 340.302 490.622 340.625 496.324C340.948 502.026 336.591 506.911 330.892 507.239C330.32 507.273 273.352 510.834 237.309 534.71C235.619 535.832 233.635 536.429 231.607 536.427ZM638.675 468.709C660.555 468.709 681.708 470.167 726.925 488.491C772.14 506.815 794.752 480.377 808.61 467.25C822.463 454.122 841.428 447.559 829.758 476.001C799.859 533.619 750.263 523.409 718.174 512.471C686.083 501.53 670.037 496.425 638.678 496.425H641.964C610.605 496.425 594.559 501.53 562.467 512.471C530.378 523.409 480.783 533.621 450.882 476.001C439.211 447.559 458.177 454.122 472.032 467.25C485.89 480.377 508.501 506.815 553.717 488.491C598.934 470.167 620.087 468.709 641.967 468.709H638.675ZM743.387 354.449C757.801 364.659 775.306 331.111 850.776 324.225C894.145 320.268 909.984 340.834 927.488 332.57C939.75 326.777 941.589 283.463 850.179 281.029C786.997 279.348 720.269 338.078 743.387 354.449ZM968.568 121.756C977.94 128.86 993.078 213.629 982.062 228.214C964.989 250.815 844.19 176.837 855.351 155.772C866.512 134.712 948.09 106.238 968.568 121.756Z" fill="#FF0000"/>
<path d="M970.647 237.635C938.323 237.635 867.75 193.958 852.832 169.169C849.15 163.051 848.459 157.727 850.779 153.351C859.801 136.328 912.658 112.142 950.04 112.142C959.595 112.142 966.882 113.988 971.692 117.634C984.262 127.163 998.524 214.997 986.186 231.33C983.029 235.512 977.802 237.635 970.647 237.635ZM950.04 122.485C917.718 122.485 867.22 144.417 859.917 158.195C859.636 158.725 859.695 160.512 861.696 163.837C874.846 185.688 942.184 227.291 970.647 227.291C973.215 227.291 976.564 226.911 977.932 225.098C987.337 212.647 972.364 132.568 965.359 125.808C963.401 124.329 959.07 122.485 950.04 122.485ZM950.345 417.789C947.932 417.792 945.593 416.95 943.735 415.411C941.877 413.871 940.615 411.73 940.169 409.358C939.723 406.986 940.12 404.533 941.291 402.423C942.463 400.314 944.336 398.68 946.585 397.805C949.686 396.6 1023.05 368.452 1074.1 384.961C1075.42 385.362 1076.63 386.021 1077.69 386.898C1078.74 387.775 1079.61 388.853 1080.25 390.07C1080.88 391.287 1081.27 392.618 1081.38 393.985C1081.5 395.352 1081.34 396.729 1080.92 398.034C1080.5 399.34 1079.82 400.549 1078.93 401.59C1078.03 402.631 1076.94 403.484 1075.71 404.099C1074.49 404.714 1073.15 405.079 1071.78 405.172C1070.41 405.265 1069.04 405.085 1067.74 404.642C1023.73 390.427 954.777 416.817 954.087 417.086C952.895 417.552 951.625 417.791 950.345 417.789ZM1070.91 468.846C1069.24 468.846 1067.6 468.44 1066.12 467.662C1029.13 448.27 958.933 462.174 958.232 462.316C952.634 463.462 947.175 459.831 946.039 454.235C945.494 451.548 946.039 448.753 947.553 446.467C949.067 444.181 951.428 442.589 954.115 442.043C957.286 441.401 1032.21 426.527 1075.72 449.338C1077.77 450.413 1079.4 452.143 1080.35 454.254C1081.3 456.364 1081.52 458.731 1080.96 460.978C1080.41 463.224 1079.12 465.22 1077.3 466.646C1075.47 468.073 1073.23 468.847 1070.91 468.846ZM1049.03 536.427C1047 536.427 1045.02 535.829 1043.33 534.707C1007.18 510.759 950.322 507.27 949.75 507.237C948.394 507.16 947.066 506.816 945.843 506.226C944.619 505.636 943.524 504.81 942.62 503.797C941.715 502.783 941.019 501.601 940.572 500.319C940.124 499.036 939.934 497.678 940.012 496.322C940.086 494.964 940.428 493.635 941.017 492.41C941.606 491.186 942.432 490.089 943.446 489.184C944.46 488.28 945.643 487.584 946.927 487.137C948.211 486.691 949.57 486.503 950.927 486.583C953.482 486.728 1013.99 490.457 1054.75 517.456C1055.88 518.207 1056.86 519.173 1057.62 520.299C1058.38 521.426 1058.91 522.691 1059.18 524.022C1059.45 525.353 1059.45 526.725 1059.19 528.058C1058.93 529.391 1058.41 530.66 1057.66 531.793C1056.72 533.22 1055.44 534.391 1053.93 535.2C1052.43 536.009 1050.74 536.431 1049.03 536.427Z" fill="#FF0000"/>
<path d="M1031.69 1117.86C1076.52 1108.86 1130.14 1133.42 1138.07 1192.45C1147.62 1263.63 1091.72 1257.53 1091.72 1257.53C1091.72 1257.53 1100.38 1242.84 1088.48 1202.77C1091.21 1222.47 1111.92 1264.83 1059.7 1275.59C1013.93 1285.03 1016.11 1214.3 1016.11 1214.3C1016.11 1214.3 1036.76 1283.09 990.044 1284.14C936.725 1285.33 947.436 1239.41 945.695 1219.6C943.066 1261.32 954.785 1273.69 954.785 1273.69C954.785 1273.69 901.675 1292.16 895.047 1220.64C889.557 1161.35 927.17 1132.43 978.043 1124.35L1031.69 1117.86Z" fill="#F8CC00"/>
<path d="M988.03 1294.51C972.219 1294.51 961.198 1290.51 953.526 1284.73C949.161 1285.69 944.705 1286.17 940.236 1286.18C895.554 1286.18 886.545 1241.01 884.747 1221.6C879.361 1163.42 912.771 1124.25 976.419 1114.13C976.546 1114.11 976.675 1114.09 976.802 1114.08L1030.07 1107.64C1036.64 1106.35 1043.33 1105.71 1050.03 1105.71C1091.85 1105.71 1140.44 1132.42 1148.32 1191.07C1151.82 1217.12 1147.58 1237.2 1135.74 1250.73C1122.38 1266.01 1103.43 1267.93 1095.41 1268C1088.93 1275.7 1078.44 1282.29 1061.79 1285.73C1058.32 1286.44 1054.91 1286.81 1051.67 1286.81C1044.52 1286.81 1033.69 1284.92 1024.31 1275.45C1017.56 1287.43 1005.91 1294.13 990.279 1294.48C989.517 1294.5 988.767 1294.51 988.03 1294.51ZM958.382 1256.61C960.942 1265.15 966.517 1273.82 988.03 1273.82C988.614 1273.82 989.209 1273.81 989.811 1273.8C995.581 1273.66 1008.93 1273.37 1010.21 1249.39C1005.27 1232.11 1005.74 1214.73 1005.77 1213.98C1005.84 1211.52 1006.79 1209.18 1008.44 1207.36C1010.08 1205.54 1012.33 1204.36 1014.76 1204.04C1017.2 1203.72 1019.67 1204.27 1021.73 1205.61C1023.79 1206.94 1025.31 1208.97 1026.01 1211.32C1026.23 1212.04 1031.17 1228.71 1030.99 1246.58C1037.51 1266.03 1048.04 1266.11 1051.62 1266.11H1051.66C1053.51 1266.11 1055.51 1265.89 1057.61 1265.46C1080.14 1260.82 1083.83 1250.78 1084.39 1241.53C1084.46 1239.08 1084.38 1236.41 1084.16 1233.63C1083.57 1227.92 1082.08 1221.72 1080.76 1216.24C1079.72 1211.93 1078.74 1207.86 1078.23 1204.19C1077.87 1201.6 1078.5 1198.98 1080 1196.84C1081.49 1194.7 1083.74 1193.21 1086.29 1192.65C1088.84 1192.1 1091.5 1192.53 1093.75 1193.86C1095.99 1195.19 1097.65 1197.32 1098.39 1199.82C1101.86 1211.5 1104.01 1222.32 1104.78 1231.98C1105.15 1235.58 1105.25 1239.07 1105.06 1242.44C1105.02 1243.72 1104.96 1244.93 1104.86 1246.08C1109.95 1244.79 1115.71 1242.21 1120.17 1237.1C1127.91 1228.26 1130.48 1213.69 1127.82 1193.82C1121.56 1147.24 1084.24 1126.4 1050.03 1126.4C1044.52 1126.4 1039.03 1126.93 1033.73 1128C1033.46 1128.05 1033.2 1128.09 1032.93 1128.13L979.473 1134.59C942.561 1140.5 899.821 1160.07 905.342 1219.68C908.119 1249.66 919.58 1265.07 939.409 1265.48C939.083 1264.44 938.762 1263.34 938.455 1262.18C937.464 1258.8 936.748 1255.2 936.264 1251.19C934.922 1241.91 934.609 1230.99 935.367 1218.95C935.531 1216.35 936.673 1213.9 938.563 1212.1C940.453 1210.31 942.953 1209.29 945.561 1209.26C948.171 1209.22 950.699 1210.17 952.635 1211.92C954.571 1213.67 955.771 1216.09 955.993 1218.69C956.318 1222.39 956.272 1226.57 956.225 1230.99C956.166 1236.55 956.096 1242.86 956.802 1248.72C957.188 1251.37 957.716 1254.01 958.382 1256.61Z" fill="#FF0000"/>
<path d="M266.095 1117.86C221.266 1108.86 167.649 1133.42 159.72 1192.45C150.173 1263.63 206.068 1257.53 206.068 1257.53C206.068 1257.53 197.41 1242.84 209.311 1202.77C206.583 1222.47 185.867 1264.83 238.09 1275.59C283.861 1285.03 281.683 1214.3 281.683 1214.3C281.683 1214.3 261.03 1283.09 307.745 1284.14C361.064 1285.33 350.353 1239.41 352.093 1219.6C354.723 1261.32 343.004 1273.69 343.004 1273.69C343.004 1273.69 396.114 1292.16 402.742 1220.64C408.231 1161.35 370.619 1132.43 319.746 1124.35L266.095 1117.86Z" fill="#F8CC00"/>
<path d="M309.759 1289.34C309.061 1289.34 308.35 1289.33 307.631 1289.31C291.022 1288.93 279.755 1280.68 274.81 1265.67C266.326 1278.49 255.093 1281.63 246.127 1281.63C243.234 1281.63 240.18 1281.3 237.048 1280.66C221.985 1277.56 211.212 1271.57 204.809 1262.79C204.266 1262.82 203.612 1262.83 202.862 1262.83C195.841 1262.83 178.187 1261.32 165.942 1247.32C155.128 1234.96 151.311 1216.27 154.598 1191.76C162.061 1136.19 208.124 1110.89 247.761 1110.89C254.226 1110.89 260.67 1111.51 266.916 1112.75L320.372 1119.22C382.06 1129.02 413.075 1165.19 407.896 1221.12C403.068 1273.23 374.286 1281.01 357.558 1281.01H357.555C351.01 1281.01 345.668 1279.82 343.048 1279.1C335.213 1285.91 324.091 1289.34 309.759 1289.34ZM282.369 1248.78C283.584 1278.42 301.828 1278.83 307.861 1278.97C308.5 1278.98 309.136 1278.99 309.757 1278.99C335.231 1278.99 341.732 1266.97 344.406 1257.93C345.078 1255.37 345.675 1252.38 346.131 1249.21C346.862 1243.14 346.79 1236.66 346.728 1230.94C346.681 1226.64 346.637 1222.59 346.94 1219.15C347.175 1216.45 349.35 1214.46 352.156 1214.43C353.46 1214.45 354.71 1214.96 355.655 1215.85C356.6 1216.75 357.171 1217.98 357.253 1219.28C357.99 1230.96 357.69 1241.53 356.368 1250.69C355.974 1254.14 355.29 1257.54 354.323 1260.87C353.504 1264.07 352.415 1267.19 351.067 1270.2C352.947 1270.47 355.15 1270.66 357.55 1270.66C380.684 1270.67 394.529 1253.2 397.591 1220.16C400.846 1185 389.843 1140.72 318.934 1129.46L265.473 1123C265.34 1122.98 265.208 1122.96 265.077 1122.93C259.375 1121.8 253.574 1121.22 247.759 1121.23C211.297 1121.23 171.518 1143.46 164.849 1193.14C161.976 1214.56 164.962 1230.5 173.726 1240.52C181.448 1249.34 192.244 1251.74 198.998 1252.32C198.455 1249.67 198.011 1246.3 197.889 1242.14C197.713 1239.16 197.804 1235.88 198.174 1232.28C198.905 1223.1 200.987 1212.63 204.354 1201.3C204.727 1200.05 205.557 1198.99 206.678 1198.33C207.799 1197.67 209.13 1197.45 210.403 1197.73C211.676 1198 212.799 1198.75 213.546 1199.81C214.293 1200.88 214.61 1202.19 214.434 1203.48C213.961 1206.91 213.009 1210.85 212.003 1215.03C210.646 1220.67 209.107 1227.06 208.463 1233.34C208.233 1236.17 208.154 1239 208.228 1241.84C208.786 1251.45 212.608 1265.06 239.132 1270.53C241.579 1271.03 243.929 1271.29 246.125 1271.29C258.196 1271.29 266.892 1263.25 271.981 1247.37C271.643 1229.98 276.52 1213.52 276.732 1212.82C277.089 1211.64 277.85 1210.63 278.88 1209.97C279.909 1209.3 281.142 1209.02 282.359 1209.17C283.576 1209.33 284.697 1209.92 285.521 1210.83C286.345 1211.74 286.818 1212.92 286.856 1214.14C286.876 1214.87 287.342 1232.02 282.369 1248.78Z" fill="#AA0909"/>
<path d="M530.978 765.668C530.215 765.668 529.458 765.342 528.93 764.713C528.198 763.842 511.043 743.082 513.412 719.103C514.664 706.426 521.16 695.299 532.711 686.034C532.984 685.807 533.299 685.637 533.638 685.534C533.977 685.43 534.333 685.395 534.686 685.431C535.039 685.467 535.381 685.572 535.693 685.741C536.004 685.911 536.279 686.14 536.501 686.417C536.723 686.693 536.887 687.011 536.985 687.352C537.083 687.693 537.112 688.05 537.07 688.402C537.029 688.754 536.918 689.094 536.743 689.403C536.569 689.711 536.335 689.982 536.055 690.2C525.662 698.534 519.836 708.436 518.729 719.628C516.58 741.391 532.858 761.08 533.024 761.277C533.35 761.666 533.559 762.141 533.625 762.645C533.691 763.149 533.613 763.662 533.398 764.123C533.183 764.584 532.842 764.974 532.413 765.247C531.984 765.521 531.487 765.667 530.978 765.668ZM374.964 738.461C374.027 738.461 373.12 737.97 372.631 737.096C345.667 688.925 382.533 664.938 382.91 664.7C383.207 664.512 383.537 664.385 383.883 664.326C384.229 664.266 384.583 664.276 384.925 664.353C385.267 664.43 385.591 664.574 385.877 664.776C386.164 664.979 386.408 665.236 386.595 665.532C386.782 665.829 386.909 666.16 386.969 666.505C387.028 666.851 387.019 667.205 386.942 667.547C386.865 667.89 386.721 668.213 386.518 668.5C386.316 668.786 386.059 669.03 385.762 669.217C384.379 670.099 352.874 690.859 377.296 734.484C377.525 734.89 377.643 735.35 377.639 735.816C377.635 736.283 377.508 736.74 377.272 737.142C377.036 737.545 376.699 737.878 376.294 738.11C375.889 738.341 375.43 738.462 374.964 738.461ZM243.97 687.952C242.799 687.952 241.726 687.177 241.397 685.995C227.612 636.306 265.697 620.224 266.085 620.069C266.738 619.819 267.462 619.835 268.103 620.113C268.744 620.391 269.25 620.91 269.514 621.557C269.777 622.204 269.777 622.928 269.512 623.575C269.248 624.221 268.741 624.739 268.1 625.016C266.703 625.59 234.066 639.575 246.549 684.565C246.66 684.962 246.677 685.38 246.6 685.785C246.522 686.19 246.352 686.572 246.102 686.9C245.852 687.228 245.53 687.494 245.16 687.677C244.79 687.859 244.383 687.954 243.97 687.952ZM446.504 753.55C445.834 753.55 445.161 753.296 444.642 752.795C433.152 741.634 427.722 729.552 428.5 716.889C429.907 694.014 451.021 677.779 451.921 677.099C452.201 676.887 452.519 676.733 452.858 676.644C453.198 676.555 453.551 676.534 453.899 676.582C454.246 676.629 454.581 676.745 454.883 676.922C455.186 677.099 455.451 677.334 455.663 677.614C455.875 677.893 456.03 678.212 456.118 678.551C456.207 678.89 456.228 679.244 456.181 679.591C456.133 679.939 456.017 680.273 455.84 680.576C455.663 680.879 455.428 681.144 455.148 681.356C454.947 681.508 435.069 696.835 433.832 717.246C433.163 728.272 438.053 738.942 448.365 748.96C448.748 749.33 449.011 749.806 449.121 750.327C449.231 750.848 449.182 751.39 448.982 751.883C448.782 752.376 448.439 752.798 447.998 753.095C447.556 753.392 447.036 753.551 446.504 753.55ZM300.158 712.809C299.095 712.809 298.091 712.172 297.675 711.125C291.932 696.708 291.546 683.629 296.535 672.256C304.259 654.635 321.998 647.676 322.751 647.389C323.412 647.136 324.148 647.155 324.795 647.443C325.442 647.732 325.948 648.265 326.202 648.927C326.456 649.588 326.436 650.323 326.148 650.971C325.86 651.618 325.326 652.124 324.665 652.378C324.502 652.44 308.205 658.887 301.409 674.451C297.042 684.456 297.455 696.132 302.643 709.152C302.803 709.557 302.862 709.996 302.814 710.429C302.766 710.862 302.612 711.277 302.367 711.638C302.122 711.998 301.793 712.293 301.408 712.497C301.023 712.701 300.593 712.808 300.158 712.809ZM196.099 652.556C195.011 652.556 193.987 651.884 193.591 650.8C193.211 649.758 184.385 625.057 194.02 606.185C198.543 597.328 206.358 591.269 217.25 588.177C217.932 587.983 218.662 588.068 219.281 588.413C219.9 588.758 220.357 589.335 220.551 590.017C220.745 590.698 220.66 591.429 220.314 592.048C219.969 592.667 219.393 593.124 218.711 593.317C209.314 595.984 202.611 601.127 198.789 608.595C190.206 625.373 198.525 648.732 198.61 648.967C198.758 649.371 198.805 649.804 198.749 650.23C198.693 650.656 198.535 651.063 198.289 651.415C198.043 651.767 197.715 652.055 197.334 652.253C196.953 652.452 196.529 652.556 196.099 652.556ZM752.953 765.668C752.444 765.668 751.947 765.523 751.518 765.25C751.09 764.977 750.748 764.587 750.533 764.127C750.318 763.666 750.238 763.154 750.304 762.65C750.37 762.146 750.578 761.672 750.905 761.282C751.068 761.085 767.361 741.316 765.2 719.597C764.085 708.418 758.256 698.529 747.877 690.202C747.596 689.985 747.362 689.714 747.188 689.405C747.013 689.097 746.902 688.756 746.861 688.404C746.819 688.052 746.848 687.695 746.946 687.355C747.044 687.014 747.208 686.696 747.43 686.419C747.652 686.143 747.927 685.913 748.238 685.744C748.55 685.575 748.892 685.469 749.245 685.434C749.598 685.398 749.954 685.433 750.293 685.536C750.632 685.64 750.947 685.81 751.22 686.036C762.774 695.302 769.267 706.429 770.519 719.105C772.888 743.079 755.73 763.845 755.001 764.716C754.749 765.014 754.436 765.254 754.082 765.418C753.728 765.582 753.343 765.667 752.953 765.668ZM908.967 738.461C908.501 738.461 908.043 738.339 907.639 738.108C907.235 737.876 906.898 737.542 906.663 737.14C906.427 736.738 906.301 736.281 906.297 735.815C906.293 735.349 906.412 734.89 906.64 734.484C931.152 690.686 899.531 670.076 898.176 669.22C897.577 668.842 897.152 668.241 896.995 667.55C896.839 666.859 896.963 666.134 897.341 665.535C897.719 664.936 898.319 664.511 899.011 664.354C899.702 664.197 900.427 664.322 901.026 664.7C901.404 664.938 938.263 688.925 911.305 737.096C911.072 737.51 910.732 737.855 910.321 738.095C909.91 738.335 909.443 738.461 908.967 738.461ZM1039.96 687.952C1039.55 687.953 1039.14 687.859 1038.77 687.676C1038.4 687.493 1038.08 687.228 1037.83 686.9C1037.58 686.572 1037.41 686.191 1037.33 685.786C1037.25 685.381 1037.27 684.964 1037.38 684.567C1042.67 665.527 1040.61 649.709 1031.27 637.553C1024.35 628.546 1015.92 625.055 1015.84 625.018C1015.51 624.887 1015.22 624.692 1014.97 624.446C1014.72 624.199 1014.52 623.906 1014.38 623.583C1014.24 623.26 1014.17 622.913 1014.17 622.563C1014.17 622.212 1014.23 621.864 1014.37 621.539C1014.5 621.214 1014.69 620.918 1014.94 620.669C1015.19 620.419 1015.48 620.22 1015.8 620.083C1016.12 619.947 1016.47 619.875 1016.82 619.873C1017.17 619.87 1017.52 619.937 1017.85 620.069C1018.23 620.227 1056.32 636.306 1042.53 685.995C1042.38 686.557 1042.04 687.053 1041.57 687.406C1041.11 687.759 1040.54 687.951 1039.96 687.952ZM837.425 753.55C836.894 753.549 836.375 753.39 835.935 753.092C835.494 752.795 835.153 752.374 834.953 751.882C834.753 751.389 834.705 750.849 834.813 750.329C834.922 749.809 835.183 749.333 835.563 748.962C845.876 738.945 850.766 728.275 850.096 717.249C848.857 696.838 828.979 681.511 828.78 681.358C827.606 680.466 827.376 678.79 828.265 677.616C829.155 676.442 830.831 676.207 832.005 677.102C832.902 677.782 854.019 694.016 855.426 716.892C856.204 729.552 850.774 741.634 839.284 752.797C838.767 753.299 838.095 753.55 837.425 753.55ZM983.773 712.809C983.337 712.809 982.907 712.703 982.521 712.499C982.136 712.295 981.806 711.999 981.561 711.638C981.316 711.277 981.163 710.861 981.116 710.427C981.069 709.993 981.129 709.555 981.291 709.149C986.476 696.129 986.892 684.454 982.524 674.449C975.729 658.881 959.432 652.437 959.266 652.375C958.605 652.121 958.071 651.615 957.783 650.968C957.495 650.321 957.475 649.586 957.729 648.924C957.983 648.263 958.489 647.729 959.136 647.441C959.783 647.153 960.519 647.133 961.18 647.387C961.933 647.674 979.67 654.633 987.396 672.253C992.382 683.626 991.999 696.706 986.259 711.122C985.84 712.172 984.836 712.809 983.773 712.809ZM1087.83 652.556C1087.4 652.556 1086.97 652.453 1086.59 652.255C1086.21 652.056 1085.88 651.769 1085.64 651.418C1085.39 651.066 1085.23 650.66 1085.18 650.234C1085.12 649.809 1085.17 649.376 1085.32 648.972C1085.4 648.737 1093.72 625.378 1085.14 608.6C1081.32 601.13 1074.62 595.989 1065.22 593.323C1064.54 593.129 1063.96 592.672 1063.61 592.053C1063.27 591.434 1063.18 590.703 1063.38 590.022C1063.57 589.34 1064.03 588.763 1064.65 588.418C1065.27 588.073 1066 587.988 1066.68 588.182C1077.57 591.275 1085.39 597.333 1089.91 606.19C1099.54 625.062 1090.72 649.763 1090.34 650.805C1090.15 651.319 1089.81 651.762 1089.36 652.075C1088.91 652.388 1088.37 652.556 1087.83 652.556Z" fill="white"/>
<path d="M640.32 903.33C693.97 903.33 737.463 859.837 737.463 806.187C737.463 752.536 693.97 709.043 640.32 709.043C586.669 709.043 543.176 752.536 543.176 806.187C543.176 859.837 586.669 903.33 640.32 903.33Z" fill="white"/>
<path d="M640.32 908.502C583.902 908.502 538.004 862.604 538.004 806.187C538.004 749.772 583.905 703.874 640.32 703.874C696.734 703.874 742.635 749.772 742.635 806.187C742.637 862.604 696.737 908.502 640.32 908.502ZM640.32 714.215C589.607 714.215 548.348 755.471 548.348 806.184C548.348 856.897 589.607 898.156 640.32 898.156C691.032 898.156 732.291 856.897 732.291 806.184C732.291 755.471 691.035 714.215 640.32 714.215Z" fill="white"/>
<path d="M640.32 908.957C637.576 908.957 634.945 907.867 633.005 905.927C631.066 903.988 629.976 901.357 629.976 898.613V837.947C629.976 835.204 631.066 832.573 633.005 830.633C634.945 828.693 637.576 827.603 640.32 827.603C643.063 827.603 645.694 828.693 647.634 830.633C649.574 832.573 650.663 835.204 650.663 837.947V898.613C650.663 901.357 649.574 903.988 647.634 905.927C645.694 907.867 643.063 908.957 640.32 908.957Z" fill="#FF0000"/>
<path d="M642.308 837.95C656.581 837.95 668.152 826.379 668.152 812.106C668.152 797.833 656.581 786.262 642.308 786.262C628.035 786.262 616.464 797.833 616.464 812.106C616.464 826.379 628.035 837.95 642.308 837.95Z" fill="#F8CC00"/>
<path d="M642.308 848.291C622.355 848.291 606.121 832.059 606.121 812.106C606.121 792.15 622.355 775.916 642.308 775.916C662.261 775.916 678.496 792.15 678.496 812.106C678.496 832.059 662.261 848.291 642.308 848.291ZM642.308 796.603C638.198 796.608 634.258 798.243 631.352 801.149C628.446 804.056 626.812 807.996 626.808 812.106C626.813 816.215 628.448 820.155 631.353 823.06C634.259 825.965 638.199 827.599 642.308 827.603C646.417 827.599 650.357 825.965 653.263 823.06C656.169 820.155 657.804 816.215 657.808 812.106C657.804 807.996 656.17 804.056 653.264 801.149C650.358 798.243 646.418 796.608 642.308 796.603Z" fill="#FF0000"/>
<path d="M1198.34 367.635C1244 365.274 1293.47 397.399 1292.7 456.94C1291.76 528.757 1237.35 514.568 1237.35 514.568C1237.35 514.568 1248.06 501.294 1242.13 459.919C1241.96 479.81 1256.28 524.741 1203.04 527.767C1156.38 530.42 1168.85 460.77 1168.85 460.77C1168.85 460.77 1179.25 531.832 1132.88 526.057C1079.96 519.46 1097.26 475.595 1098.42 455.743C1089.73 496.632 1099.53 510.583 1099.53 510.583C1099.53 510.583 1044.29 521.103 1048.17 449.379C1051.38 389.931 1092.81 366.805 1144.32 366.226L1198.34 367.635Z" fill="#F8CC00"/>
<path d="M1200.48 538.185C1186.51 538.188 1175.5 532.788 1168.05 522.595C1158.82 534.428 1146.36 536.737 1138.06 536.737C1135.98 536.737 1133.8 536.598 1131.6 536.326C1119.76 534.849 1106.19 530.898 1096.66 521.317C1095.22 521.419 1093.77 521.469 1092.33 521.47C1083.42 521.47 1066.56 519.455 1053.77 505.952C1041.83 493.345 1036.47 474.124 1037.84 448.823C1040.99 390.484 1079.76 356.611 1144.2 355.884C1144.32 355.884 1144.46 355.882 1144.59 355.887L1198.22 357.286C1199.83 357.211 1201.44 357.173 1203.06 357.172C1230.65 357.172 1257.21 368.056 1275.95 387.035C1294.03 405.351 1303.4 429.571 1303.04 457.077C1302.23 519.331 1264.28 526.055 1247.99 526.055C1244.64 526.055 1241.72 525.783 1239.47 525.47C1231.94 532.134 1220.6 537.133 1203.62 538.097C1202.58 538.156 1201.53 538.185 1200.48 538.185ZM1178.87 494.884C1182.41 514.886 1192.24 517.498 1200.48 517.498C1201.12 517.498 1201.78 517.48 1202.45 517.443C1225.39 516.138 1230.51 506.769 1232.43 497.731C1232.86 495.279 1233.17 492.606 1233.36 489.779C1233.61 484.069 1233.03 477.721 1232.53 472.122C1232.13 467.711 1231.75 463.545 1231.79 459.834C1231.81 457.225 1232.81 454.722 1234.61 452.824C1236.4 450.927 1238.84 449.775 1241.44 449.601C1244.04 449.433 1246.61 450.25 1248.64 451.891C1250.66 453.532 1251.99 455.876 1252.37 458.456C1254.09 470.496 1254.65 481.496 1254 491.152C1253.86 494.682 1253.44 498.196 1252.74 501.659C1252.53 502.838 1252.29 504.011 1252.03 505.178C1271.76 503.283 1281.96 487.033 1282.36 456.808C1282.64 434.96 1275.33 415.858 1261.23 401.568C1246.35 386.502 1225.15 377.86 1203.06 377.86C1201.66 377.86 1200.27 377.896 1198.88 377.968C1198.61 377.982 1198.34 377.986 1198.07 377.979L1144.25 376.575C1106.86 377.04 1061.73 390.166 1058.5 449.94C1057.45 469.348 1060.91 483.402 1068.79 491.724C1073.74 496.945 1079.92 499.29 1085.52 500.231C1085.33 499.06 1085.17 497.884 1085.04 496.704C1084.56 493.083 1084.37 489.43 1084.49 485.779C1084.5 476.363 1085.78 465.456 1088.3 453.597C1088.84 451.045 1090.33 448.792 1092.46 447.29C1094.59 445.787 1097.22 445.145 1099.8 445.493C1102.39 445.841 1104.74 447.153 1106.4 449.166C1108.06 451.179 1108.9 453.744 1108.75 456.348C1108.53 460.054 1107.88 464.181 1107.18 468.556C1106.31 474.088 1105.31 480.356 1105.17 486.286C1105.17 488.921 1105.3 491.633 1105.57 494.134C1106.88 503.273 1111.36 512.952 1134.16 515.794C1135.52 515.962 1136.83 516.05 1138.06 516.05C1142.35 516.05 1153.57 516.05 1157.9 494.636C1155.53 476.824 1158.54 459.692 1158.67 458.95C1159.1 456.531 1160.38 454.345 1162.28 452.783C1164.17 451.221 1166.56 450.385 1169.02 450.424C1171.48 450.464 1173.84 451.376 1175.68 452.997C1177.53 454.619 1178.74 456.845 1179.09 459.275C1179.2 460.023 1181.65 477.232 1178.87 494.884Z" fill="#FF0000"/>
<path d="M419.63 1065.07C446.185 1151.93 397.298 1243.89 310.447 1270.45C223.58 1297.01 131.629 1248.12 105.071 1161.26L45.6672 966.975C19.107 880.116 67.989 788.168 154.848 761.608C241.712 735.048 333.663 783.927 360.223 870.791L419.63 1065.07Z" fill="#FF0000"/>
<path d="M262.302 1282.85C187.258 1282.85 122.087 1234.59 100.127 1162.77L40.7205 968.485C13.3691 879.035 63.8879 784.012 153.333 756.661C169.427 751.725 186.165 749.21 202.998 749.2C278.037 749.2 343.208 797.454 365.168 869.276L424.577 1063.56C451.923 1153.01 401.405 1248.04 311.962 1275.39C295.87 1280.33 279.133 1282.84 262.302 1282.85ZM202.998 759.547C187.255 759.547 171.564 761.905 156.358 766.552C72.3672 792.238 24.9282 881.466 50.6118 965.462L110.018 1159.75C130.639 1227.19 191.838 1272.51 262.302 1272.51C278.042 1272.51 293.734 1270.15 308.937 1265.5C392.925 1239.81 440.364 1150.58 414.686 1066.58L355.277 872.301C334.656 804.86 273.46 759.547 202.998 759.547Z" fill="#FF0000"/>
<path d="M387.723 1068.09C409.669 1139.87 369.267 1215.86 297.497 1237.81C225.708 1259.75 149.721 1219.35 127.774 1147.57L72.7166 960.802C50.7671 889.019 91.162 813.034 162.94 791.085C234.726 769.138 310.713 809.53 332.663 881.311L387.723 1068.09Z" fill="#F8CC00"/>
<path d="M257.712 1248.96C195.298 1248.96 141.094 1208.82 122.829 1149.09L67.7566 962.264C45.0236 887.92 87.0373 808.886 161.427 786.141C174.812 782.036 188.732 779.947 202.732 779.939C265.141 779.939 319.342 820.071 337.61 879.798L392.685 1066.62C415.418 1140.97 373.401 1220 299.012 1242.76C285.629 1246.86 271.71 1248.95 257.712 1248.96ZM202.73 790.281C189.808 790.281 176.93 792.215 164.45 796.032C95.514 817.11 56.5802 890.351 77.6607 959.29L132.736 1146.11C149.648 1201.42 199.877 1238.61 257.712 1238.61C270.631 1238.61 283.509 1236.68 295.986 1232.86C364.922 1211.78 403.856 1138.54 382.776 1069.6L327.7 882.772C310.791 827.469 260.562 790.281 202.73 790.281Z" fill="#F8CC00"/>
<path d="M133.321 698.343C172.366 674.547 231.157 679.284 258.796 732.022C292.128 795.646 237.516 809.036 237.516 809.036C237.516 809.036 240.622 792.274 215.729 758.691C225.039 776.275 259 808.982 213.609 836.97C173.827 861.492 151.673 794.294 151.673 794.294C151.673 794.294 194.62 851.854 151.084 868.828C101.39 888.197 95.7497 841.386 87.3247 823.365C99.1321 863.468 114.376 871.083 114.376 871.083C114.376 871.083 70.7928 906.609 40.0926 841.671C14.6444 787.847 40.0926 747.801 85.1241 722.785L133.321 698.343Z" fill="#F8CC00"/>
<path d="M86.7375 891.127C70.9038 891.127 48.3389 883.315 30.7416 846.096C5.77175 793.283 23.7647 745.045 80.102 713.745C80.2157 713.683 80.3295 713.621 80.4459 713.564L128.288 689.292C144.321 679.615 163.457 674.286 182.221 674.286C219.075 674.286 250.326 693.58 267.955 727.22C280.758 751.657 283.315 772.764 275.557 789.957C267.895 806.939 252.336 814.679 244.57 817.599C241.115 827.048 233.52 836.843 219.034 845.775C206.042 853.786 192.445 854.766 180.289 849.01C178.029 862.545 169.376 872.798 154.838 878.466C140.375 884.104 127.616 885.213 116.902 881.944C111.275 885.536 100.324 891.127 86.7375 891.127ZM89.9828 731.924C57.3224 750.119 23.863 783.141 49.4457 837.252C59.8566 859.276 72.4036 870.44 86.7375 870.44C90.5181 870.44 94.0608 869.672 97.1226 868.629C96.4296 867.724 95.721 866.755 95.0021 865.715C92.8783 862.782 90.9948 859.681 89.37 856.444C84.8963 848.151 80.8338 837.934 77.4048 826.29C76.6664 823.787 76.9011 821.098 78.0618 818.761C79.2226 816.424 81.2237 814.612 83.6641 813.689C86.1045 812.765 88.8038 812.798 91.221 813.78C93.6382 814.763 95.5948 816.623 96.6985 818.987C98.2708 822.351 99.662 826.298 101.131 830.474C102.993 835.765 105.103 841.756 107.8 847.047C109.041 849.346 110.44 851.65 111.852 853.709C116.662 860.199 122.188 863.096 129.749 863.096C134.769 863.096 140.685 861.782 147.329 859.193C152.705 857.096 165.146 852.242 158.148 829.292C147.59 814.749 142.087 798.251 141.849 797.534C141.079 795.202 141.164 792.672 142.089 790.397C143.014 788.122 144.718 786.25 146.897 785.116C149.076 783.982 151.586 783.661 153.98 784.209C156.374 784.757 158.495 786.14 159.963 788.108C160.416 788.714 170.76 802.685 176.713 819.535C183.296 827.816 189.94 832.01 196.469 832.01C200.102 832.01 204.043 830.717 208.181 828.165C227.736 816.109 227.787 805.445 225.183 796.588C224.322 794.033 223.323 791.527 222.191 789.081C219.696 783.958 216.184 778.665 213.086 773.992C210.637 770.299 208.326 766.813 206.588 763.529C205.361 761.224 205.053 758.54 205.723 756.016C206.394 753.492 207.995 751.316 210.204 749.924C212.413 748.531 215.067 748.026 217.633 748.51C220.199 748.994 222.487 750.43 224.038 752.531C231.266 762.283 236.97 771.677 240.996 780.459C242.57 783.66 243.882 786.983 244.922 790.394C245.307 791.571 245.646 792.696 245.946 793.774C250.014 791.01 254.249 786.976 256.771 781.295C261.684 770.211 259.282 755.249 249.631 736.824C235.693 710.23 211.121 694.976 182.221 694.976C167.062 694.976 151.608 699.31 138.699 707.176C138.47 707.316 138.236 707.446 137.996 707.567L89.9828 731.924Z" fill="#FF0000"/>
<path d="M214.842 967.425C223.534 966.135 218.359 940.505 211.858 917.454C229.761 912.562 246.158 908.696 256.76 907.178C293.664 901.895 308.12 896.578 302.216 880.783C294.564 860.297 251.521 881.461 206.048 898.316C202.725 888.034 200.087 880.783 200.087 880.783C200.087 880.783 250.859 865.288 243.184 847.577C240.645 841.717 150.494 873.55 120.973 893.625C93.2282 913.7 143.414 904.848 182.081 889.495C183.32 893.509 184.739 899.141 186.338 905.544C143.959 921.509 107.73 938.85 101.49 943.215C94.4074 948.173 100.309 960.337 119.791 949.117C130.393 943.014 160.499 932.497 190.92 923.436C196.955 945.825 204.855 968.907 214.842 967.425ZM367.188 1070.88C359.163 1049.42 312.283 1073.69 264.461 1090.81C216.64 1107.93 173.335 1128.5 166.465 1133.32C159.382 1138.27 165.283 1150.44 184.763 1139.22C194.801 1133.44 222.326 1123.71 251.045 1114.99L254.883 1126.51C254.883 1126.51 210.576 1140.1 201.049 1146.74C191.525 1153.39 202.593 1159.59 207.022 1171.1C211.45 1182.61 201.264 1198.11 187.982 1202.09C174.701 1206.08 212.241 1218.03 230.221 1194.56C248.201 1171.1 224.733 1150.73 224.733 1150.73L258.682 1140.54C258.682 1140.54 263.918 1159.58 266.023 1166.67C268.126 1173.75 260.156 1177.3 258.384 1170.65C256.613 1164.01 253.957 1150.73 245.987 1154.27C238.017 1157.81 242.002 1170.65 245.545 1179.07C249.085 1187.48 259.713 1194.56 287.166 1182.61C314.618 1170.65 326.128 1168.88 326.573 1162.68C327.015 1156.49 322.143 1129.92 314.173 1129.92C306.203 1129.92 299.118 1131.25 305.761 1150.29C307.975 1157.37 297.791 1168.88 292.477 1160.47C287.163 1152.06 281.409 1132.13 281.409 1132.13L323.917 1117.08C323.917 1117.08 331.887 1150.29 344.726 1164.45C357.568 1178.62 368.636 1162.24 361.111 1150.72C353.583 1139.22 343.397 1118.85 342.07 1110.88C340.744 1102.91 338.53 1096.72 320.374 1103.14C302.219 1109.55 274.378 1118.4 274.378 1118.4L271.366 1109.06C291.365 1103.46 310.057 1098.95 321.732 1097.28C358.639 1091.99 373.091 1086.68 367.188 1070.88ZM169.384 1096.12C149.904 1111.47 184.308 1114.42 201.049 1091.99C217.795 1069.56 224.93 1047.49 230.218 1032.25C242.589 1018.19 276.238 1009.52 280.373 1014.45C284.507 1019.37 289.666 1058.06 239.049 1064.83C210.12 1069.55 239.047 1083.72 278.604 1066.01C318.158 1048.3 314.716 998.448 288.05 994.577C260.696 990.877 232.649 1010.52 232.649 1010.52L234.545 997.766C254.927 992.03 274.058 987.394 285.93 985.695C322.834 980.412 337.289 975.095 331.385 959.297C323.364 937.834 276.483 962.108 228.662 979.227C180.845 996.346 137.536 1016.92 130.662 1021.73C123.582 1026.69 129.48 1038.86 148.963 1027.64C158.446 1022.18 183.532 1013.19 210.488 1004.87C207.793 1021.4 197.63 1070.8 169.384 1096.12Z" fill="white"/>
</svg>
